<?xml version="1.0" encoding="UTF-8"?>
<svg id="a" data-name="Layer 1" xmlns="http://www.w3.org/2000/svg" viewBox="0 0 480 480">
  <path d="M240,5c31.72699,0,62.50235,6.21264,91.47107,18.46543,27.98306,11.83579,53.11542,28.78086,74.69901,50.3645,21.58365,21.58357,38.52872,46.71593,50.3645,74.69901,12.25278,28.96872,18.46542,59.74406,18.46542,91.47107s-6.21265,62.50235-18.46542,91.47107c-11.83578,27.98306-28.78085,53.11542-50.3645,74.69901-21.58359,21.58365-46.71594,38.52872-74.69901,50.3645-28.96872,12.25278-59.74408,18.46542-91.47107,18.46542s-62.50235-6.21265-91.47107-18.46542c-27.98308-11.83578-53.11543-28.78085-74.69901-50.3645-21.58364-21.58359-38.52871-46.71594-50.3645-74.69901-12.25278-28.96872-18.46543-59.74408-18.46543-91.47107s6.21264-62.50235,18.46543-91.47107c11.83579-27.98308,28.78086-53.11543,50.3645-74.69901,21.58357-21.58364,46.71593-38.52871,74.69901-50.3645,28.96872-12.25278,59.74406-18.46543,91.47107-18.46543M240,0C107.45164,0,0,107.45164,0,240s107.45164,240,240,240,240-107.45163,240-240S372.54837,0,240,0h0Z" fill="#000" stroke-width="0"/>
  <g>
    <g>
      <path d="M95.1605,259.05469v13.40039h-56.65366v-69.2998h19.08871v55.89941h37.56495Z" fill="#000" stroke-width="0"/>
      <path d="M185.70818,237.75488c0,5.93457-1.08168,11.15039-3.24225,15.65039-2.16224,4.5-5.1202,8.2666-8.87108,11.2998-3.75311,3.03418-8.21974,5.31738-13.3988,6.84961-5.18128,1.5332-10.74903,2.30078-16.70269,2.30078-5.79319,0-11.2571-.76758-16.39618-2.30078-5.13963-1.53223-9.62681-3.81543-13.45988-6.84961-3.83529-3.0332-6.85266-6.7998-9.05488-11.2998-2.20278-4.5-3.30389-9.71582-3.30389-15.65039,0-5.93262,1.14165-11.1499,3.42605-15.6499,2.28274-4.5,5.36285-8.28271,9.23868-11.3501,3.8736-3.06543,8.36078-5.36523,13.45988-6.8999,5.09687-1.53271,10.46195-2.2998,16.09022-2.2998,5.79152,0,11.25766.76709,16.39673,2.2998,5.13908,1.53467,9.62459,3.83447,13.45988,6.8999,3.83307,3.06738,6.8521,6.8501,9.05488,11.3501,2.20222,4.5,3.30333,9.71729,3.30333,15.6499ZM120.97915,237.75488c0,3.40039.50808,6.46777,1.52923,9.2002,1.01893,2.73438,2.48763,5.08398,4.405,7.0498,1.9157,1.96777,4.26174,3.48438,7.0359,4.5498,2.77249,1.06738,5.95367,1.60059,9.54408,1.60059,3.50657,0,6.66886-.5332,9.483-1.60059,2.81469-1.06543,5.17961-2.58203,7.09698-4.5498,1.9157-1.96582,3.3844-4.31543,4.40556-7.0498,1.01893-2.73242,1.52923-5.7998,1.52923-9.2002,0-3.3999-.5103-6.48242-1.52923-9.25-1.02115-2.76562-2.48986-5.13281-4.40556-7.09961-1.91737-1.96582-4.28229-3.48291-7.09698-4.55029-2.81414-1.06543-5.97643-1.6001-9.483-1.6001-3.59041,0-6.77159.55029-9.54408,1.65039-2.77416,1.09961-5.1202,2.63428-7.0359,4.59961-1.91737,1.96729-3.38607,4.33447-4.405,7.1001-1.02115,2.76709-1.52923,5.81738-1.52923,9.1499Z" fill="#000" stroke-width="0"/>
      <path d="M252.76159,203.15527h19.08926v69.2998h-19.08926v-29.40039h-32.05828v29.40039h-19.08871v-69.2998h19.08871v26.5h32.05828v-26.5Z" fill="#000" stroke-width="0"/>
      <path d="M291.42877,272.45508v-69.2998h57.26446v13.09961h-38.17631v13.6001h33.89402v12.80029h-33.89402v16.7002h40.99156v13.09961h-60.07971Z" fill="#000" stroke-width="0"/>
      <path d="M422.47714,272.45508c-5.46613-7.93262-11.37982-15.76562-17.74217-23.5-6.36346-7.73242-13.1356-15.03271-20.31309-21.8999v45.3999h-18.84272v-69.2998h15.53994c2.69198,2.19971,5.66825,4.8999,8.93216,8.09961,3.26169,3.2002,6.58668,6.61719,9.97275,10.25,3.38385,3.63477,6.74882,7.40039,10.09491,11.30029,3.34387,3.8999,6.48451,7.6499,9.42081,11.24951v-40.89941h18.9671v69.2998h-16.0297Z" fill="#000" stroke-width="0"/>
    </g>
    <path d="M271.32224,98.72776v13.82467h-69.36947V41.05615h23.37282v57.67161h45.99666Z" fill="#000" stroke-width="0"/>
    <path d="M271.32224,158.87859c0,6.12235-.87512,11.50334-2.62023,16.14599-1.74767,4.64264-4.13824,8.52939-7.16999,11.65823-3.0326,3.13035-6.64235,5.48576-10.82755,7.06722-4.1869,1.58096-8.68629,2.37245-13.49815,2.37245-4.68166,0-9.09781-.79148-13.25099-2.37245-4.15318-1.58147-7.77958-3.93687-10.8775-7.06722-3.09962-3.12885-5.538-7.01559-7.31769-11.65823-1.78012-4.64264-2.67018-10.02363-2.67018-16.14599,0-6.12085.9225-11.50334,2.76879-16.14599,1.845-4.64264,4.33418-8.54543,7.46625-11.70986,3.13036-3.16243,6.75676-5.53538,10.8775-7.11835,4.11946-1.58147,8.45492-2.37295,13.00382-2.37295,4.68038,0,9.09781.79148,13.25056,2.37295,4.15275,1.58297,7.77787,3.95592,10.87707,7.11835,3.0992,3.16443,5.53843,7.06722,7.31854,11.70986,1.77926,4.64264,2.66975,10.02514,2.66975,16.14599ZM219.01113,158.87859c0,3.5078.41066,6.67223,1.23584,9.4918.82346,2.82107,2.01021,5.24515,3.55981,7.27324,1.54832,2.02959,3.44412,3.59501,5.68613,4.69427,2.2403,1.10076,4.81144,1.65064,7.71341,1.65064,2.83367,0,5.38902-.54988,7.66347-1.65064,2.27445-1.09926,4.1852-2.66468,5.73565-4.69427,1.54874-2.02809,2.73464-4.45216,3.56023-7.27324.82304-2.81957,1.23626-5.984,1.23626-9.4918s-.41323-6.68827-1.23626-9.54293c-.8256-2.85366-2.01149-5.29578-3.56023-7.32537-1.55045-2.02758-3.4612-3.59301-5.73565-4.69377-2.27445-1.09976-4.82979-1.65114-7.66347-1.65114-2.90197,0-5.47311.56742-7.71341,1.70227-2.24201,1.13485-4.13781,2.71832-5.68613,4.7459-1.5496,2.02959-2.73634,4.47171-3.55981,7.32537-.82517,2.85466-1.23584,6.00105-1.23584,9.43967Z" fill="#000" stroke-width="0"/>
    <path d="M202.63301,358.93022v-71.49628h65.47269v13.51489h-43.64846v14.03118h38.75179v13.20611h-38.75179v17.2292h46.86499v13.51489h-68.68922Z" fill="#000" stroke-width="0"/>
    <path d="M255.9753,441.05615c-5.23366-8.18452-10.8962-16.26478-16.98865-24.24479-6.09245-7.978-12.57635-15.50889-19.44869-22.59365v46.83845h-18.04216v-71.49628h14.8791c2.57738,2.26969,5.42787,5.05568,8.55249,8.35696,3.1231,3.30128,6.30638,6.82712,9.54834,10.57452,3.24044,3.7494,6.46216,7.63414,9.66568,11.65823,3.20149,4.02409,6.20978,7.89279,9.02184,11.6061v-42.19581h18.15899v71.49628h-15.34693Z" fill="#000" stroke-width="0"/>
  </g>
</svg>