<svg xmlns="http://www.w3.org/2000/svg" viewBox="0 0 456.11248 238.87139">
  <linearGradient id="a" x2="0" y2="225" gradientUnits="userSpaceOnUse">
    <stop stop-color="#27B9F2" offset="0"/>
    <stop stop-color="#0C9AF2" offset="1"/>
  </linearGradient>
  <g fill="white">
    <path
      d="M321.80636,131.66837c4.80608,10.48724,9.50409,21.02672,14.52215,31.41159.86105,1.78188,2.96515,3.95514,4.70138,4.15502,8.77861,1.0106,17.61882,1.75471,26.45071,1.93256,5.31154.10698,10.68793-.74453,15.96241-1.60935,7.22225-1.18426,11.61163,3.30304,15.91927,7.65794,4.96358,5.01806,9.97348,8.64914,17.75947,7.56451,2.99516-.41724,6.65128,1.58803,9.53548,3.28815,3.55354,2.09466,6.15462,2.97387,9.76306-.27564,1.65266-1.48825,5.36049-1.47725,7.89907-.96665,2.28624.45988,4.55928,2.22487,6.27472,3.96855,2.14109,2.17631,3.70521,4.92027,5.51841,7.41915-3.57723,2.30784-6.91412,5.82952-10.79612,6.59818-4.28573.8486-9.064-.89748-13.64215-1.37503-2.45955-.2566-5.27132-1.01627-7.36389-.1676-5.71265,2.31681-10.12706-.01593-14.63349-2.8432-3.75076-2.35314-7.42674-4.8483-11.30817-6.96431-4.34865-2.37062-9.4506-.84644-11.98176,3.33436-3.55854,5.8778-6.72201,11.62911-2.66244,18.85622,1.87846,3.34412,3.86746,4.86362,7.61467,4.88458,6.17285.03466,15.2482,7.64889,15.85262,13.65336.14415,1.43281-1.99396,3.98376-3.6005,4.54981-6.7567,2.38062-12.83221-.26358-18.76776-3.39527-1.76996-.93391-3.82649-1.90741-5.74088-1.88606-9.28931.10357-15.58929-8.1728-13.18802-17.01781,1.45672-5.36596,2.23161-10.95978,2.82624-16.50348.47861-4.46198-2.68798-3.56244-4.83613-2.21115-7.49903,4.7172-15.4052,9.03353-22.08556,14.75321-12.73112,10.90026-27.50231,12.64837-42.98629,10.77636-8.93007-1.07955-13.50293-8.33295-16.71535-16.1044-1.76535-4.27072-3.25856-8.66641-4.64547-13.07774-1.59512-5.07385-5.67615-7.13414-10.15026-8.6031-2.36023-.77493-4.45687-.80026-4.51576,3.00956-.03196,2.06806-1.63432,4.14846-2.66173,6.15497-1.19696,2.33753-2.84586,4.48483-3.76424,6.91649-3.34061,8.84508-8.39793,16.44963-15.86298,22.26866-1.06448.8298-3.13722.36609-4.74334.50106.17459-1.48456-.1555-3.32872.60488-4.39594,5.29477-7.43089,6.48354-15.30832,3.99852-24.09846-.87762-3.10441-1.93263-4.60929-5.04927-3.57546-7.25772,2.40744-14.8035,4.27402-21.6249,7.60438-16.86872,8.23569-34.65621,9.11075-52.67628,7.19529-8.50122-.90365-16.74691-4.03587-25.19688-5.71215-2.31731-.45974-5.39699-.00887-7.36236,1.2335-6.15128,3.88842-11.84928,4.45659-18.42554.74496-3.19032-1.80064-7.39805-1.79869-11.14515-2.61282-6.7393-3.1988-13.46301-6.4315-20.23597-9.55747-.94358-.43555-2.12956-.34584-3.20334-.49929.18163,1.01138.18885,2.0959.57658,3.02091,1.32723,3.16616,2.63836,6.35861,4.28768,9.35845.50512.91873,3.00825,1.80802,3.02949,1.77255,3.88079-6.48091,9.367-3.11122,14.38537-2.4278,3.26317,1.15968,6.69725,1.9902,9.74189,3.57081,3.10352,1.61123,3.66701,3.96181.04987,5.98865-.16817.09428-.3618.14391-.52784.24117-3.75487,2.20029-9.60735,3.68031-10.6853,6.80621-1.13723,3.29765,2.28397,8.16592,3.70926,12.34952.49805,1.46186,1.48332,2.97703,1.34654,4.38015-.16944,1.73843-.96126,3.67191-2.12077,4.93839-.49783.54373-2.86796.01504-3.92265-.70612-4.09303-2.79861-7.88295-6.04884-12.03116-8.75463-1.71173-1.11655-4.08565-1.90624-6.08589-1.77117-7.98323.53912-9.48001-.50482-12.48275-8.04876-2.27318-5.71105-4.89471-11.34311-8.00756-16.62979-1.18614-2.01446-3.99465-3.50775-6.37617-4.3024-7.01182-2.33955-12.01358-5.87269-11.92226-14.22448.01541-1.40858-2.04502-2.99434-3.38856-4.23618-5.29791-4.89707-5.46737-9.3001-.38514-14.38825,1.2286-1.23006,2.91396-2.19025,3.69927-3.64661,5.30126-9.8311,8.17445-7.72196,17.82619-5.79299,6.05517,1.21023,12.12276,2.35838,18.17614,3.57738,2.80961.56572,4.12751-.18803,4.61653-3.34799.58341-3.77012,2.08893-7.39397,3.14747-11.09474,3.0113-10.52788,1.15138-20.45553-3.19713-30.29801-2.46964-5.58981-3.89448-11.63277-6.00424-17.39312-1.39746-3.81553-3.17487-7.4919-4.7822-11.23056-.84218.18835-1.68435.37674-2.52652.56512.1563,2.76857-.19138,5.68378.56353,8.27818,2.25318,7.74342,4.95705,15.35507,7.44754,23.03032,1.22525,3.77605.77126,6.78475-3.49083,8.47994-1.25531.49929-2.35922,1.92614-3.05762,3.19028-4.70068,8.50846-15.74517,9.13952-20.98096.61301-8.05457-13.11687-15.51565-26.60014-23.10859-39.99595-.91454-1.61346-1.06703-3.65424-1.60195-5.48844-2.07882-7.12804-2.28892-14.44057-10.01123-19.64641-5.24057-3.53289-7.65688-11.29214-11.2044-17.23989-.33782-.56636-.01793-2.05869.50564-2.46458.59949-.46477,1.8837-.49613,2.66817-.19282,3.03801,1.17472,6.18198,2.25488,8.93051,3.94805,2.73271,1.68345,3.94178,1.68032,4.55885-1.77691,1.37941-7.72803,2.98294-15.41607,4.52728-23.28392,4.09663,5.69823,6.03183.85265,8.4063-2.18087.59522-.76039,1.00702-1.69347,1.69332-2.3476,1.58319-1.50898,3.28311-2.89552,4.93568-4.3317.72588,1.84752,1.45173,3.69505,2.36713,6.02504,2.20742-1.53042,4.40443-3.27765,6.81281-4.65532,2.07511-1.18703,3.51553-2.89194,6.97231-.70277,2.14834,1.36052,7.25967-1.78142,10.96505-3.11406,2.73425-.98338,5.62697-5.57985,7.64139,1.11517.20836.69248,6.47054.30712,9.47937-.79318,3.08614-1.12859,5.42165-4.15862,7.61268,1.15998.48217,1.17054,3.707,1.41321,5.72354,1.70457,3.43006.49558,9.68808.09462,9.90523,1.10916,1.37407,6.4187,6.74382,5.77229,10.76082,7.61759.35967.16521.20665,3.02288-.55189,3.75003-2.26999,2.17601-1.51712,2.78691.96247,3.78777,3.16464,1.27734,6.2965,2.83549,9.07252,4.79631,1.50102,1.06026,2.01499,3.42056,3.36508,4.81637,1.71303,1.77106,3.82276,3.15839,5.76146,4.71124-1.50428,1.67752-4.20723,3.38424-4.16722,5.02409.0381,1.56121,2.91308,3.08295,4.59234,4.56361,1.07125.94452,2.23629,1.78269,3.35927,2.66854-1.21981,1.01635-2.43958,2.03269-3.03804,2.53134,1.99279,5.78809,3.7393,11.79473,6.1272,17.53447,2.40095,5.77093,4.78349,11.76234,8.44823,16.71414,2.16833,2.92986,7.54589,6.31796,10.17264,5.46634,4.97865-1.61406,8.53662-6.51567,8.78435-12.52241.2456-5.95463.48904-11.93093.20229-17.87212-.08141-1.68749-1.65918-4.08702-3.17542-4.76693-3.82-1.71299-8.01002-2.58912-12.01961-3.89899-1.03369-.33768-1.94873-1.03862-2.91826-1.57267.65685-.87262,1.1268-2.09469,2.00048-2.56181,6.22779-3.32982,6.60261-9.64764,7.56362-15.40363.23631-1.415-2.02358-4.14482-3.70958-4.80493-4.12707-1.61582-4.00845-3.31727-1.34076-6.1809,12.10009-12.98905,31.88462-9.37531,39.7577,6.79818.45835.94164,1.54043,2.37193,2.19483,2.30131,5.51852-.59556,9.30606,2.81326,13.43646,5.44183,8.96926,5.70807,17.79142,2.57199,26.61724-.41114.91132-.30799,1.76946-.78195,2.6889-1.05593,17.54253-5.22776,19.25335-4.19992,25.08689,10.77423.48794,1.2524,1.47498,2.34363,1.80163,3.61951,1.03231,4.03232,3.0794,4.16073,6.35935,2.28815,9.3781-5.35411,18.84977-10.54576,28.32974-15.71862,1.42657-.77841,3.09497-1.11364,4.6515-1.6539.25206,1.65177.5907,3.29609.73279,4.95726.15518,1.81423.12844,3.64402.18101,5.46701,1.73662-.73382,3.5545-1.32019,5.19644-2.22565,9.62178-5.30619,19.25286-10.59939,28.77358-16.08311,4.1636-2.39813,6.30327-1.78319,5.7556,3.29169-.52036,4.82166,1.69927,4.68307,5.02455,3.21188,10.23-4.52592,20.43865-9.10249,30.72498-13.49699,2.90797-1.24233,6.05381-1.92782,9.59873-1.73669-3.80854,2.77323-7.53195,5.67324-11.44087,8.29693-14.10916,9.47018-28.26986,18.86381-42.43784,28.24596-2.87828,1.90603-5.94445,4.38231-6.16997-2.16159-.15146-4.39583-2.84043-2.58075-4.73784-1.316-6.91185,4.60713-13.75942,9.31155-20.59554,14.03102-3.97461,2.74399-7.89513,5.56715-11.8142,8.39048-3.55067,2.55791-6.09094,1.96512-5.96857-2.64293.12897-4.85833-2.0809-3.45567-4.45343-2.18444-1.69902.91032-3.21,2.18412-4.93452,3.03208-5.59591,2.75172-8.45075,6.74563-7.59189,13.36364.55796,4.29946-1.65716,10.46177.51844,12.62918,2.2131,2.20473,8.33054.14706,12.66138.63631,11.10734,1.25471,22.21223,2.63793,33.24525,4.42073,22.15551,3.58,44.02973,2.94638,64.82479-5.92859,15.53523-6.63014,28.5492-16.8838,37.0651-32.02484.64429-1.1455,2.04198-1.86729,3.08951-2.78602.54434,1.35942,1.72452,2.83036,1.50943,4.05652-.56115,3.2-1.71232,6.2993-2.66819,9.42652-.88351,2.89059-4.26381,5.96446.68771,8.36849-.7424,1.22814-1.20274,2.86608-2.28014,3.60781-3.26913,2.25062-6.77699,4.15463-10.58081,6.42593,1.18692.96505,1.55518,1.4084,2.0273,1.62166,1.50517.67994,3.04893,1.27436,4.57779,1.90177-1.28944,1.24996-2.42996,2.7204-3.89541,3.70965-4.93875,3.33373-9.99291,6.49645-15.18322,9.84078,1.05114.91064,2.2619,1.95955,3.47267,3.00842-1.49878.75893-3.01162,1.49151-4.49366,2.28191-3.95876,2.11137-7.8161,4.44389-11.8989,6.27585-1.59555.71591-3.68545.33261-5.55055.44463-4.51175.271-10.42296-3.17233-12.19285,4.64579-.07846.34662-2.66241.44959-3.95184.13816-3.97351-.9597-8.2336-4.693-11.14224,1.68167-.1875.411-1.42561.54753-2.14333.47914-5.47556-.5217-11.17693-.37298-16.33038-1.97221-3.38058-1.04916-5.96559-4.66193-8.9069-7.12659-.38489-.38479-.76975-.76965-1.15461-1.15447-.30001-.33261-.60002-.66522-.9-.9979-.58374-.2461-1.16749-.49219-1.75127-.73829.12603.61212.25206,1.22417.37815,1.83618.31062.4127.62117.82544.93171,1.23814.32594.37901.65185.75798.97782,1.13698ZM42.77137,25.49032c.2104-.49349.42079-.98698.6312-1.48048-.52761.23913-1.05522.47825-1.58271.71743-.30732.29299-.61464.586-.92192.879-1.84033,2.53099-3.67861,5.06346-5.52231,7.592-.53541.7343-1.08631,1.45727-1.63013,2.18543-.58195-.85595-1.60557-1.68462-1.66044-2.57311-.14618-2.36649.12468-4.75877.22973-7.14079-.53148-.10723-1.06297-.21447-1.59447-.32172-.75576,2.77912-1.3616,5.61131-2.31976,8.31881-.64337,1.81793-1.39579,4.44721-2.77852,4.99298-4.02457,1.58856-5.16576,3.57539-3.36478,8.15599.48824-.30211,1.04392-.5321,1.45494-.91671,14.90484-13.948,32.0366-19.84153,52.35615-14.82606,12.31618,3.03999,21.90985,10.94878,31.71885,18.11566,9.45773,6.91021,17.82771,15.30921,26.67556,23.05413-1.49389-2.93528-3.51193-5.77291-5.55569-8.59185-1.22307-1.68692-3.57812-3.37771-3.5285-5.00916.15299-5.03328-3.00193-7.36087-6.36109-9.85784-1.06838-.79416-1.8968-1.9111-2.83504-2.88034,1.41876.04448,2.8377.08329,4.25618.13578.72407.02682,1.44725.07807,2.17081.11826.16178-.51777.32356-1.03554.48538-1.5533-6.50978-2.26985-13.01953-4.53973-19.52928-6.8096.10549-.53568.21098-1.07138.31651-1.60708,4.78154.68602,9.56308,1.37205,14.34465,2.05805l.36457-1.69159c-9.22579-2.03471-18.46129-4.02716-27.66897-6.14076-1.78757-.41033-3.46672-1.29297-5.19587-1.95778,1.86397-.58062,3.69549-1.38792,5.6035-1.6611,1.24426-.17819,2.59524.60412,3.90599.63518,4.00597.09485,8.01556.03444,12.02376.03444.0171-.53916.03419-1.0783.05129-1.61745-12.82916-.78596-25.38818-7.05557-38.61206.16937-.1591-.59265-.31821-1.18528-.4773-1.77792,2.35556-1.65106,4.71115-3.3021,7.06671-4.95315l-.89998-1.65232c-4.71452,2.22574-9.41781,4.4758-14.15073,6.66167-1.33831.6181-2.7633,1.04857-4.14854,1.56508.67125-1.41291,1.22798-2.89818,2.05745-4.21111.48476-.76729,1.40511-1.25936,2.12947-1.87527l2.04913-1.9789c-.95523.32069-1.91048.64138-2.86571.96208-4.93974,3.34905-9.86956,6.71293-14.82782,10.03434-.9669.6477-2.04438,1.13038-3.07085,1.68917.03638-1.25712.07275-2.51424.10911-3.77137.36718-.40603.73435-.81207,1.10151-1.2181ZM245.35249,211.8128c1.47835-2.6878,2.95309-5.37759,4.43584-8.06295,2.42681-4.39505,1.48534-10.52051,6.81437-13.54691.06417-.03643-1.04054-3.58426-2.10104-3.92286-10.34216-3.30251-15.17946-11.91029-20.43836-20.2703-2.54915-4.05237-5.43183-7.95146-8.58813-11.54717-2.45738-2.79946-5.31275-3.55286-8.19302.17281-1.48353,1.91897-3.70738,3.44819-5.88862,4.60149-3.11668,1.64794-2.90598,3.19801-.43264,5.03675,9.26161,6.88528,18.59871,13.67014,27.79473,20.64151,1.74378,1.32193,3.73242,3.10001,4.30297,5.04959,2.00141,6.83846,3.86565,13.81624,1.47342,21.01526-.13248.37294-.26497.74585-.39745,1.11875.406-.09531.81196-.19062,1.21793-.28597ZM402.35033,110.63952c-3.55865,1.47413-7.06224,3.11792-10.71482,4.30258-.90834.29462-2.29816-.89507-3.46664-1.40248.65242-.72556,1.27745-2.05373,1.9614-2.0849,8.21015-.37322,12.89819-6.15965,18.24315-11.20822,2.68833-2.53921,2.4931-4.15732.21531-6.2854-9.8992,8.86182-20.63622,15.66449-33.32084,19.48849-18.68522,5.63298-37.59429,5.96928-56.75379,3.76988-14.54896-1.67014-29.11531-3.19429-43.68467-4.67789-3.85036-.39206-6.3674.81175-7.52854,5.25479-1.40025,5.35801-4.01076,10.39647-6.05086,15.59149-1.69043,4.3046-3.90555,5.40888-8.39981,2.86743-2.88314-1.63042-7.64698-3.11838-10.04172-1.83115-7.123,3.82872-13.49133,9.06145-18.7839,12.78191,4.62352,6.46066,9.67776,12.66032,13.77843,19.43699,7.96866,13.16883,14.62062,16.02952,28.72453,11.03263-.79965-.50599-1.50091-.78869-1.97835-1.28621-.91799-.95658-1.70916-2.03482-2.55291-3.06259,1.58831-.35003,3.19812-1.02841,4.75689-.92643.92887.06069,2.03159,1.18515,2.62069,2.1091,3.61146,5.66402,7.28372,11.30324,10.57503,17.15359,3.30372,5.87241,5.49383,12.50361,9.49093,17.80842,2.78698,3.69865,7.60825,7.72792,11.85024,8.12938,14.73348,1.39436,28.92529-.78717,40.35861-11.81473,9.2033-8.87665,20.44223-14.24899,32.5851-17.84318.76926-.22769,1.84182-.01373,2.54649.39032.31207.17888.3717,1.67734.01493,2.01396-7.37935,6.96175-4.4285,16.8712-7.12925,25.17535-1.95331,6.00606,3.17198,10.3567,8.87977,8.38651.75581-.26085,1.81015-.30157,2.50871.0233,3.89665,1.81203,7.59874,4.13579,11.62798,5.53306,2.31284.8021,5.11922.18104,7.70341.20066-1.59378-2.4637-2.94841-5.14689-4.90413-7.27844-.73836-.80476-2.86767-.42941-4.36149-.41753-1.48325.01178-3.11881.71768-4.42013.29529-5.45063-1.76914-10.61511-13.80518-8.30074-19.12789,2.46182-5.66175,5.43555-11.13252,7.45487-16.94076.89766-2.5821,1.14674-6.98566-.35552-8.42024-2.08739-1.99332-6.25713-3.05691-9.25707-2.6175-10.46751,1.53319-20.81893,3.86561-31.20153,5.95864-.87024.17544-2.0217.62031-2.40088,1.29869-2.57752,4.61146-3.25491,1.82512-4.25012-.92391-4.04116-11.16363-7.67819-22.50848-12.3951-33.3827-4.69013-10.81243-10.12621-21.40909-20.47901-28.63198,9.95425,1.1129,19.33061,3.37931,27.33184,9.64331,2.01996,1.63496,4.03991,3.26995,6.05987,4.90491.35843-.47769.71683-.95534,1.07526-1.43302-1.9548-1.5029-3.9096-3.0058-5.86439-4.50866-.26671-1.69295-.53337-3.38587-.80008-5.07882,1.45721.77039,3.00066,1.41621,4.34656,2.3475,1.25851.87088,2.25924,2.10427,3.45795,3.07355,3.49569,2.82656,7.18689,4.73915,11.97818,2.30348-2.37499-1.55696-4.6177-2.71391-6.43235-4.3466-.9321-.8386-1.10052-2.52606-1.61406-3.82993,1.30252.39617,2.70483.60134,3.89065,1.22091,5.74117,2.9998,11.47535,5.88876,18.20743,4.5071-2.78691-1.31898-5.7119-2.13056-8.51651-3.24512-.62759-.24943-.83289-1.56139-1.23261-2.38424.62532-.25755,1.29766-.81629,1.86885-.72708,7.48807,1.16951,14.94603,2.54368,22.44988,3.59224,1.97328.27571,4.07748-.38539,6.9847-.71382-5.69789-5.30629-13.49977-.44292-18.26294-6.38567,5.25891,0,9.84489-.07726,14.42726.01795,7.03273.14607,13.2319-1.74254,18.14347-7.02042.25851-.21385.51709-.42771.77561-.64156-.47971-.04476-.95949-.08953-1.43919-.13433ZM212.69889,114.61906c-2.07125.38536-2.48601.36248-2.79173.53401-7.55706,4.23923-15.09564,8.51151-22.65508,12.74655-1.90106,1.06505-4.55073,2.44383-4.62029-1.17841-.12652-6.58764-2.87668-3.52867-5.52678-1.92731-9.90881,5.98737-19.85505,11.91291-29.74971,17.92348-3.19422,1.94033-5.33715,1.5782-5.2632-2.52524.11216-6.2219-3.01073-4.8523-6.40068-2.9583-10.2764,5.74149-20.50984,11.56012-30.79641,17.2833-1.66025.92373-3.46213,1.67373-5.28849,2.17904-.74166.2052-1.72367-.45821-2.59632-.72641.34031-.84513.44143-1.9902,1.06139-2.48459,3.01782-2.40645,6.2866-4.50288,9.26282-6.95618,14.01555-11.55274,27.94541-23.20938,41.9516-34.77351,3.10185-2.56107,5.83733-3.7698,6.10155,2.23984.03802.86503,2.46416,2.57515,2.95993,2.31589,3.23129-1.68951,6.23489-3.8146,10.55459-6.59697-4.30733-.99198-6.92391-1.15791-9.13232-2.19398-4.61071-2.16308-9.84603-3.9561-13.27602-7.43015-4.25033-4.30492-6.71559-10.31602-10.34092-15.30754-5.30073-7.29827-10.01239-15.41137-16.66728-21.24774-9.79669-8.59174-20.73284-16.04505-31.81214-22.97903-21.22991-13.28681-40.99717-9.07365-58.26437,5.24248-1.94494,1.61254-4.02684,6.07729-3.17501,7.4958,2.87707,4.79108,1.09734,5.31804-3.23159,6.12454-3.29756.61432-5.29619.26039-7.46842-2.41798-1.83131-2.25807-4.58847-3.76526-6.93581-5.60478-.36723.34932-.73444.69863-1.10167,1.04795,2.55046,5.02512,3.44496,11.02036,9.99025,13.6015,1.62077.63915,3.14938,2.86108,3.6807,4.66214,1.63205,5.53228,2.10046,11.48003,4.24091,16.77299,3.07639,7.60732,6.92713,14.9517,11.00701,22.08836,3.85715,6.74712,8.43688,13.08118,12.2421,18.89865,2.05928-1.75176,3.4666-3.5203,5.27545-4.16864.609-.21832,2.37922,2.31369,3.35765,3.7647.83697,1.2413,1.30059,2.73434,1.92933,4.11604,1.33023-1.34133,3.51709-2.50289,3.84279-4.05503,1.42816-6.80611,1.23282-6.84711,7.81972-5.72176-1.2064-3.71465-2.5296-7.09697-3.39772-10.59226-2.56396-10.32336-7.35192-20.15751-3.247-31.58124,1.53387-4.26867-.21208-10.34947-2.0035-15.01189-2.03461-5.29541-6.89619-7.41039-12.88779-6.46037-1.24008.19665-2.74049-1.24857-4.12093-1.9371,1.27743-.65061,2.67182-2.01332,3.81164-1.82607,4.46647.73364,9.57854.84992,13.1432,3.18854,15.62825,10.25309,22.59501,27.38171,32.04187,42.47962,1.4597,2.33285,1.64418,5.52497,2.13208,8.36888.15565.90713-.61464,1.97307-.9613,2.96632-.9946-.65366-2.47139-1.07977-2.9048-1.99825-2.62062-5.55374-5.47941-11.06825-7.33278-16.89057-1.91966-6.03075-7.48062-6.75028-11.74867-9.80839,3.11237,12.11723,6.70645,23.79944,10.98911,35.22353,2.8886,7.70533,2.9864,15.34057,2.00926,23.28394-.69101,5.61741-1.30474,11.33538-.95454,16.94612.14584,2.33675,2.82821,4.55534,4.47392,6.73974.72304.9597,2.62383,2.13286,2.46263,2.46256-.61357,1.25514-1.774,3.02041-2.86748,3.12243-3.76612.35141-7.66321.54597-11.37828-.03891-10.71492-1.68699-21.90191-6.29412-30.67425,4.08507-2.60838,3.08618-4.48296,7.64407-4.72092,11.64497-.24273,4.08053,3.80801,5.75826,7.66844,7.42568,3.83131,1.65486,7.49094,4.82063,9.96278,8.2375,3.35284,4.63473,5.6092,10.0878,8.13568,15.28711,1.95244,4.01799,5.16945,5.20488,8.88695,3.54194,3.13683-1.40319,6.15203-3.94925,7.60204,1.18969.95566,3.3869,7.91553,1.30501,5.86672,7.04646-.14619.40965,2.30254,1.86938,3.67724,2.58675.25667.13401,1.75187-1.16791,1.65471-1.4327-1.65539-4.51263-2.96706-9.28853-5.50887-13.26932-.97484-1.52666-4.84718-1.67451-7.38325-1.62556-4.08202.07889-5.36491-1.89921-5.81461-5.53192-.94588-7.64102-4.58074-13.35285-12.09926-16.27859-2.30158-.89564-4.28741-2.58895-6.44571-3.86997-2.77504-1.64705-3.01232-3.33993-1.01207-6.08275,3.52256-4.83024,7.91127-3.37732,12.01136-1.89886,14.12092,5.09187,28.17766,10.37128,42.16544,15.8191,7.85342,3.05869,15.5131.61592,19.38761-6.92295.56672-1.10275.56615-3.13857-.09574-4.11887-2.68802-3.98114.04249-3.95567,2.79269-4.4247,6.18778-1.05533,12.33449-2.35122,18.52276-3.40325.95665-.1627,2.0445.44676,3.0717.69913-.44473,1.08268-.59116,2.71015-1.38943,3.14722-2.52347,1.38177-5.45502,2.04213-7.91645,3.5064-2.33256,1.38762-4.27115,3.43744-6.38301,5.19602,2.61544,1.98672,4.96808,4.67335,7.91411,5.77962,3.53009,1.32558,7.70001.853,11.36124,1.93962,17.70126,5.25348,34.69164,1.67582,51.42309-4.05364,6.1566-2.10828,11.88291-5.45194,17.86935-8.08703,3.05833-1.34626,2.75442-2.69738.45076-4.47493-5.32485-4.10876-10.49546-8.43007-15.96042-12.34133-7.37009-5.27483-15.10681-10.04271-22.40994-15.40438-7.10584-5.2167-5.89674-4.45237-.27164-10.55974,8.06759-8.75917,14.41034-19.10697,22.21836-29.77209ZM300.39428,62.53259c.47208-3.09632.9963-5.12848,1.02436-7.16745.02213-1.60818-.56658-3.22476-.88397-4.83755-1.40408.50411-2.91553.81888-4.19457,1.54366-7.38141,4.18261-14.50136,8.88998-22.12064,12.56891-5.74794,2.77534-6.02962,6.93394-4.81747,11.91621.86123,3.53985,2.93833,4.81758,6.38542,2.42262,3.64108-2.52971,7.37336-4.93697,11.15944-7.244,1.21778-.74209,2.73292-.9962,4.11199-1.4736.13305,1.30557.26855,2.61094.39855,3.91683.14213,1.42791.27912,2.85629.41834,4.28449,1.37825-.55494,2.89669-.89716,4.11263-1.69841,9.82929-6.47687,19.57511-13.08026,29.39993-19.56397,8.0036-5.28186,8.03631-5.2323,9.43808,4.44528,10.50696-7.20554,20.74682-14.22795,30.98668-21.25033-2.43294-.71601-4.52945-.54987-6.25613.33665-3.76601,1.93344-7.37123,4.1885-10.9917,6.39489-4.78232,2.9145-6.09885,2.56436-6.68725-2.74587-.47726-4.30768-1.93901-4.81666-5.41611-2.70451-9.21302,5.59634-18.48832,11.09106-27.77912,16.55778-2.41978,1.4238-4.98706,2.59686-8.28847,4.29836ZM115.65141,143.16198c.22371.4038.44739.8076.67111,1.2114,1.81536-.85421,3.70585-1.57941,5.43264-2.58561,6.50205-3.78864,12.98037-7.62041,19.40311-11.54161,2.15709-1.31693,3.78144-2.06408,4.66349,1.26407,1.80156,6.79763,1.81494,6.71658,7.9289,2.97735,9.36838-5.7296,18.76134-11.42136,28.21996-17.00018,4.76742-2.81188,5.63355-2.15045,5.67732,3.33504.03132,3.9229,2.10186,1.91394,3.60146,1.00744,6.93295-4.19113,13.8105-8.47512,20.77927-12.60538,2.74253-1.62545,3.09387-3.18681,1.42511-6.06615-3.77654-6.51656-3.5933-6.62265-10.10826-2.84363-1.83838,1.06636-3.71124,2.07792-5.50802,3.21029-3.38793,2.1351-4.53736,1.06391-4.09479-2.67741.09371-.79238-.2328-1.63446-.45087-2.97859-1.38131.8247-2.19323,1.26255-2.95699,1.77262-10.91647,7.29011-21.80268,14.62587-32.7538,21.86341-2.89204,1.91127-6.12915,4.14888-6.63936-2.1407-.031-.38206-2.67879-1.24141-3.28502-.78476-10.74454,8.0931-21.36107,16.3561-32.00526,24.58239ZM252.89547,44.5143c-6.43891,1.96579-12.13216,3.67723-17.80707,5.44754-2.93003.91405-3.58568,2.73491-2.826,5.77671,2.32029,9.29017,4.37816,18.64726,6.43171,28.0017.59211,2.69724,1.71494,3.66775,4.40651,2.38329,6.40745-3.05783,13.00691-5.7588,19.18788-9.21376,1.53064-.85556,2.8824-4.34798,2.39637-6.09371-2.10952-7.57692-4.77714-15.0148-7.60981-22.36134-.62166-1.61229-2.74881-2.64407-4.1796-3.94042ZM200.64083,69.40893c4.26157,8.97451,8.40191,17.81221,12.7191,26.56265.34917.70775,2.11491,1.38652,2.87771,1.114,5.9358-2.12091,11.90029-4.23887,17.58704-6.92664,1.47431-.69682,3.14502-3.70543,2.77024-5.14196-2.32962-8.92854-5.06265-17.76308-7.99211-26.51835-1.18246-3.53385-4.08418-5.39643-7.79074-3.56847-5.51391,2.71923-10.92874,5.68292-16.15398,8.91701-1.56668.96967-2.36097,3.1873-4.01725,5.56176ZM237.34814,92.51364c-6.35754,2.49115-12.1881,4.52576-17.71034,7.19767-.87138.42157-1.21927,4.33095-.33477,5.60031,8.11016,11.6389,18.85956,20.2277,31.77236,26.0711,1.01489.45924,2.3465.21854,3.53094.30317-.12482-1.2607.05193-2.64964-.42129-3.76218-4.5901-10.79126-9.25044-21.55335-14.01172-32.27005-.52763-1.18753-1.80884-2.04035-2.82518-3.14002ZM258.04637,129.15629c.63046.10716,1.26092.21435,1.89138.32154,2.06146-5.84698,4.94297-11.55207,5.98492-17.57541,1.42738-8.2514,1.75102-16.73741,1.95235-25.13711.08854-3.69188-2.29791-5.51266-6.32214-3.79357-5.65448,2.41546-11.35985,4.71794-17.09332,6.94001-3.1004,1.20157-3.52452,3.05297-2.1678,5.89383,5.29842,11.09457,10.51043,22.23028,15.75462,33.35071ZM185.61989,56.19169c-1.98239,3.34153-4.26324,7.03975-6.39791,10.82055-2.83178,5.01533-1.88726,7.15081,3.86923,8.23658,2.95366.5571,6.01695.53295,9.03066.77146-.49719.40298-.99439.806-1.49158,1.20902.76088,2.27854.8961,5.20105,2.42631,6.68774,2.41762,2.34898,5.72375,3.82152,8.75764,5.47446.88383.48159,2.12084.31491,3.19596.44534-.07914-1.07193.10347-2.25109-.28398-3.19667-1.45881-3.56017-3.71614-6.90365-4.56073-10.58386-2.33795-10.18744-7.3547-20.68861,1.74648-30.28684-4.85645-1.50347-9.39108.70101-10.11202,5.84893-.62234,4.44389.13546,9.111.5437,13.65602.18885,2.10229.99808,4.14892,1.52603,6.22077-.6931.23581-1.3862.47158-2.0793.70736-2.03503-5.28044-4.07007-10.56087-6.17047-16.01086ZM396.40783,178.19716c-.3933.15543-.7866.31087-1.1799.46634.90252,1.67951,1.40883,3.85557,2.77907,4.94878,4.79857,3.82819,9.64317,7.73874,14.98316,10.69006,2.72664,1.50694,6.94533,2.20359,9.78725,1.22562,6.21924-2.14013,11.57498.14256,17.35829,1.12964,3.23487.55207,6.80955-.88642,10.23106-1.42795-2.10959-1.92181-3.93684-4.54945-6.41816-5.5421-1.9841-.79384-4.76104.426-7.19136.70619-2.49651.28781-5.44059,1.48733-7.41347.58757-5.09382-2.32291-9.45965-6.81196-15.76629-3.05673-.65727.39139-2.25573-.39263-3.20954-.973-4.69201-2.85476-9.31365-5.82498-13.96011-8.75441ZM202.4613,144.70113c3.28382-2.0168,5.63781-2.87679,7.16369-4.51026,4.45205-4.76597,8.42124-9.98249,12.86502-14.75682,4.8965-5.26079,5.02178-7.00595-.66717-11.57967-.77908-.62638-3.45603-.3861-3.93024.32988-5.68959,8.58947-11.17423,17.31707-16.54296,26.11207-.40185.65841.49234,2.10793,1.11166,4.4048ZM218.49419,143.94965c7.90528-2.29833,15.08716-5.72187,20.35132-12.36141.39362-.49645.68147-1.40823.50808-1.96916-1.13968-3.68716-10.24713-6.05877-12.93632-3.29031-3.62636,3.7332-7.11435,7.60814-10.51565,11.54838-1.0537,1.22066-1.63184,2.85182-2.42766,4.29506,1.60807.56934,3.21614,1.13868,5.02022,1.77744ZM156.73004,34.84282c11.58563-.21687,23.19491-.7041,33.72297,7.73551-.41629-10.30477-7.5539-12.14555-13.45377-14.77702-7.04412-3.14188-14.17088-.81076-20.2692,7.04151ZM216.58575,148.21317c-.60467-.39773-1.13574-.90142-1.76698-1.13858-6.94072-2.60782-13.9085-2.44891-20.70745.34059-.68303.28022-1.20494,3.12509-.62404,3.97266,4.94194,7.21033,17.64124,6.37929,22.09475-1.29167.28146-.48471.52876-.98921,1.00372-1.883ZM170.40603,36.96201c-5.82921,1.21411-9.20713,4.97902-8.01573,11.04237.39543,2.01262,4.11394,3.92623,6.6826,4.80293,2.59721.88645,13.93883-8.50477,12.84668-9.36465-3.41914-2.69199-7.61725-4.39466-11.51355-6.48065ZM158.95519,59.42702c4.58429,2.64907,8.06575,4.97918,11.8374,6.65681,1.21594.54082,3.94719-.08708,4.69925-1.11825,3.82273-5.24156,7.24375-10.77803,10.74014-16.25288.35254-.55203.26695-1.38386.38472-2.08583-.89759-.0896-2.03783-.56658-2.64208-.18796-1.24918.78263-2.11857,2.14584-3.31266,3.04698-2.94113,2.21966-5.74773,4.81424-9.03737,6.32243-3.60561,1.65305-7.69231,2.25673-12.6694,3.6187ZM35.29782,172.16942l1.43066,1.76634c1.62565-1.14103,3.21798-2.33356,4.88483-3.41088,2.43048-1.57093,4.75462-3.91541,7.40778-4.41087,6.25204-1.16749,12.67183-1.4366,19.02377-2.06912.06434-.47659.12869-.95314.19303-1.42969-7.17078-1.16699-14.72799-4.21393-21.37793-2.84703-4.51308.92763-7.75291,8.0495-11.56214,12.40124ZM177.04791,91.3021c-4.27459.24819-11.68367,7.94454-11.05257,11.52838.10134.57555,1.2955,1.15482,2.08533,1.38233,6.83512,1.96902,11.98747-1.68838,12.79596-8.99604.33208-3.00151-.19051-5.09996-3.82872-3.91467ZM171.40932,73.97428c-1.43838,4.24338-2.12343,9.523,1.76038,12.26439,2.10314,1.48453,7.16468-.40047,10.50806-1.73005,3.22926-1.28415,2.22023-3.58341-.41387-4.91789-3.82376-1.9371-7.74506-3.68159-11.85456-5.61645ZM215.56047,52.56206c-3.19422-.88471-5.28012-1.68887-7.4383-2.01581-5.45524-.82626-9.2095,2.92709-7.93103,8.0191.17785.70846,2.50176,1.68607,3.19376,1.32281,3.71507-1.95008,7.22803-4.28516,12.17558-7.32611ZM184.9308,98.31536c3.38849-2.13847,6.00546-3.64488,8.43078-5.41409.6787-.4951,1.27766-2.43827,1.08924-2.57401-1.69231-1.2197-3.52814-2.8554-5.40611-2.96845-1.10123-.06626-2.83203,2.23303-3.41719,3.79194-.68973,1.83767-.44732,4.02519-.69672,7.16461ZM91.22759,210.66599c2.41675-1.18959,4.8802-2.40216,7.34365-3.61473-2.28354-1.03713-4.68655-3.08348-6.81746-2.83128-2.18745.2589-4.10903,2.76421-6.14697,4.28637,1.64599.63241,3.29196,1.26485,5.62078,2.15964ZM204.07051,96.33101c-.10411-.76929-.20825-1.53862-.31236-2.30791-1.74052.21662-3.52555.28817-5.17704.79504-.27036.08297.04785,2.08377.09403,3.19823,1.79844-.56179,3.59692-1.12357,5.39536-1.68536Z"
    />
    <path
      d="M354.78728,85.92011c-1.51294-4.97787-3.06532-9.9446-4.47645-14.9511-.1378-.489.71945-1.78713.9016-1.74676.81923.1814,2.09835.56934,2.24733,1.1362,1.30565,4.96861,2.40471,9.99149,3.565,14.99831-.74581.18778-1.49165.37557-2.23746.56335Z"
    />
    <path
      d="M318.89395,15.84225c1.27156,1.01668,1.79997,1.30066,2.13949,1.73298,2.34902,2.99129,4.7466,5.9524,6.91486,9.07175.49666.71456.16036,2.00811.2074,3.0352-1.00517-.2826-2.37087-.24619-2.95245-.90353-2.39446-2.70634-4.71212-5.51754-6.69005-8.53166-.54774-.83466.17437-2.50263.38074-4.40475Z"
    />
    <path
      d="M334.57146,93.57965c0-4.86585-.04405-9.7327.06803-14.59596.01124-.4873.95927-1.31086,1.4919-1.32668.52398-.01554,1.54415.8049,1.53816,1.24769-.0664,4.93729-.28969,9.87245-.47066,14.80822-.87581-.04444-1.75162-.08885-2.62743-.13326Z"
    />
    <path
      d="M377.68806,69.0283c-.44154,1.06444-.62244,1.99183-.87308,2.01109-.70261.05399-1.64712-.03732-2.12013-.47634-3.6553-3.39296-7.25506-6.84913-10.74032-10.41452-.23365-.23897.60822-1.52932.94987-2.33072,4.28147,3.75459,8.56291,7.50914,12.78365,11.21049Z"
    />
    <path
      d="M392.53002,56.72598c-.94274.16412-2.0854.75422-2.79485.42129-3.79609-1.78131-7.54649-3.68599-11.16611-5.79916-.92121-.53784-1.30824-1.99059-1.94075-3.02293,1.17738-.0437,2.54968-.50213,3.49728-.05682,3.4782,1.63457,6.8204,3.55999,10.20248,5.39675.99403.53983,1.95082,1.1484,2.92471,1.72544-.24092.44516-.48184.89032-.72275,1.33544Z"
    />
    <path
      d="M316.06899,91.8508c1.03068-4.53888,1.96927-9.10263,3.1817-13.59246.20516-.75975,1.58934-1.20111,2.42887-1.78954.37496,1.01397,1.28972,2.1965,1.03454,3.01371-1.35889,4.35213-3.01062,8.61278-4.56105,12.90507-.6947-.17891-1.38939-.35787-2.08405-.53678Z"
    />
    <path
      d="M305.1108,25.14559c2.98271,3.35779,5.96538,6.71559,8.94808,10.07338-.67593.42409-1.77124,1.35614-1.96501,1.19618-2.94784-2.43374-5.86404-4.92424-8.56025-7.62823-.52135-.52286-.07491-2.01072-.07491-3.05344.55068-.19596,1.1014-.39193,1.65209-.58789Z"
    />
    <path
      d="M375.4921,12.93857c-.49716-2.2129-1.15653-4.40722-1.4133-6.64768-.10577-.92292.65422-1.94506,1.02042-2.92209.76241.6641,2.03656,1.2236,2.19749,2.01068.6478,3.169,1.16107,6.40073,1.27801,9.62544.04604,1.26924-1.07711,2.58084-1.66791,3.87315-.62336-1.18934-1.35772-2.33701-1.8254-3.5847-.25128-.67038-.04466-1.51239-.04466-2.27696l.45534-.07784Z"
    />
    <path
      d="M361.78997,16.81018c.05189,1.12827.35843,2.32437.08133,3.36505-.25734.96649-1.13741,1.76714-1.74332,2.64079-.59102-.85816-1.53759-1.65613-1.69526-2.58761-.28253-1.66933-.2384-3.43494-.0559-5.13073.1903-1.76772.70523-3.50051,1.07821-5.24858.73127,1.75088,1.50719,3.48522,2.16539,5.26316.18622.50296.02845,1.13326.02845,1.70517l.1411-.00724Z"
    />
    <path
      d="M339.12435,8.69053c1.98222,3.3302,3.46834,5.47515,4.56091,7.80468.58279,1.24267.50784,2.80234.62883,4.2275.00592.06993-1.34644.42998-1.4128.30572-1.72814-3.23428-3.40293-6.49911-4.97262-9.81278-.15096-.31863.44413-.99065,1.19569-2.52513Z"
    />
    <path
      d="M404.78115,23.30836c-.8552-.77963-1.93422-1.31418-2.03361-1.99233-.08343-.56904.84421-1.59035,1.5522-1.91676,2.56582-1.18285,5.20655-2.21663,7.86899-3.16669.62287-.2223,1.4421.10528,2.17096.17987-.09684.65394.0305,1.69437-.32576,1.90095-2.95784,1.71526-6.005,3.27656-9.23277,4.99495Z"
    />
    <path
      d="M397.29794,38.26389c3.58071,1.63746,7.16142,3.27493,10.7422,4.91237-.33059.77369-.66118,1.54734-.99169,2.321-3.67549-1.52315-7.3509-3.04631-11.02632-4.56942.4253-.88798.85052-1.77597,1.27581-2.66395Z"
    />
    <path
      d="M392.96191,0c1.64443,1.74955,1.90244,1.91516,1.87917,2.01503-.8208,3.51454-1.66642,7.02333-2.57447,10.51579-.00333.01259-1.41678-.29558-1.41082-.33304.58811-3.70112,1.24992-7.39053,2.10612-12.19778Z"
    />
    <path
      d="M117.12433,106.48191c-.68278,1.06792-1.46562,2.29237-2.2485,3.51686-.91004-1.09147-2.16674-2.04415-2.66911-3.29886-1.99999-4.99514-3.67286-10.12057-5.63649-15.13122-3.75654-9.58557-11.04753-16.08223-19.30647-21.68474-.79582-.53983-1.95402-.76245-2.45141-1.4758-.80012-1.14752-1.18934-2.5816-1.75215-3.89459,1.52248.09669,3.59415-.41292,4.47853.38823,5.8592,5.30768,12.12916,10.37589,16.95614,16.54629,4.45116,5.68995,7.33398,12.62464,10.75089,19.09377.88248,1.67078,1.17646,3.65233,1.87857,5.94005Z"
    />
    <path
      d="M30.26801,87.20756c2.28109-3.2891,3.98378-5.74425,5.68645-8.19937,2.15393,2.99746,4.30786,5.99496,6.46181,8.99246-2.41932,1.14982-4.75776,2.82408-7.2941,3.21532-1.16568.17984-2.71953-2.15652-4.85417-4.00842Z"
    />
    <path
      d="M44.67301,96.7485c.81129-1.35389,1.66379-3.00395,2.75963-4.47245.34749-.46566,1.70297-.82484,1.96911-.57186.56555.53749,1.19702,1.7004.96759,2.27258-2.40022,5.9862.94093,10.78512,2.9284,15.9297.47462,1.2286-.17349,2.89094-.30521,4.3538-.95798-.99726-2.30704-1.83097-2.80466-3.02077-1.91482-4.5784-3.55707-9.27076-5.51486-14.49101Z"
    />
    <path
      d="M165.51605,159.847c-3.52335.11106-11.48244-6.56501-11.13139-8.69518.057-.34573,2.32731-.91398,2.71735-.52341,2.79443,2.79833,5.36695,5.81817,8.41404,9.21859Z"
    />
    <path
      d="M106.18552,139.51409c-3.46291-2.07423-6.95129-4.1083-10.36004-6.26798-.48677-.30838-.588-1.2252-.86765-1.86045.6456-.23308,1.54124-.86286,1.89819-.63791,3.57773,2.25467,7.06692,4.6498,10.58106,7.00538-.41717.58697-.83438,1.17398-1.25155,1.76095Z"
    />
    <path
      d="M146.94583,162.89171c-.66699,1.19895-.89943,2.02861-1.18494,2.04731-.66852.04381-1.64031-.07733-2.00098-.52507-2.27819-2.82816-4.44687-5.74649-6.57863-8.68801-.23517-.32456-.20041-1.15869.05633-1.4431.29455-.32626,1.26744-.57899,1.44622-.39036,2.83575,2.99267,5.59123,6.06133,8.26201,8.99923Z"
    />
    <path
      d="M113.71381,128.43967c-3.03996-2.82277-6.0985-5.62628-9.08103-8.50853-.2158-.20857.083-1.42529.20871-1.43657,1.05214-.09449,2.57015-.45977,3.10632.08488,2.57986,2.62062,4.89615,5.50075,7.306,8.28879-.51333.5238-1.02667,1.04763-1.54,1.57143Z"
    />
    <path
      d="M132.46334,168.89476c-.70619.67508-1.1699,1.47502-1.74375,1.56391-.54458.08439-1.46189-.42118-1.76985-.93455-1.45721-2.42904-2.84543-4.9098-4.06404-7.46477-.31913-.66916.05729-1.67004.11429-2.51861.78348.31197,1.90237.39713,2.29308.97477,1.80007,2.66131,3.39715,5.45985,5.17026,8.37924Z"
    />
    <path
      d="M131.81625,98.48363c1.18845,1.37017,2.4853,2.31834,3.00736,3.58571.96637,2.34611,1.47935,4.87891,2.18117,7.33398-.76174.06715-2.0488.43111-2.20444.15572-1.66312-2.94266-3.19167-5.96598-4.60461-9.03737-.12769-.27759.80707-1.04398,1.62052-2.03805Z"
    />
    <path
      d="M169.90071,138.77615c2.8488,1.90329,5.44573,3.63831,8.04262,5.3733-.64773.48687-1.5749,1.53422-1.89929,1.37251-2.76555-1.37879-5.42168-2.9771-8.11055-4.50969.55068-.62595,1.1014-1.25194,1.96721-2.23612Z"
    />
    <path
      d="M112.34116,169.91667c0-1.05568-.10127-1.65847.01947-2.21295.33112-1.52078.7556-3.02119,1.14312-4.52966.46605,1.45214,1.07913,2.87654,1.35921,4.36366.31803,1.68884.65178,3.48405.38688,5.13823-.20594,1.286-1.31969,2.42663-2.03,3.63186-.42405-1.13695-1.0642-2.24708-1.20973-3.41864-.13827-1.11286.24095-2.29003.33105-2.97249Z"
    />
    <path
      d="M104.95642,164.34885c-1.75666,2.22569-3.25963,4.13001-4.7626,6.0343-.53458-.65429-1.65933-1.655-1.51067-1.90826,1.22598-2.08856,2.68819-4.03846,4.07883-6.0304.59538.51667,1.19076,1.03334,2.19444,1.90436Z"
    />
    <path
      d="M315.76688,182.2557c-.49507,3.01456-1.08722,7.21367-1.94135,11.35875-.18782.91149-1.30639,1.63113-1.99633,2.43908-.58942-1.07005-1.34679-2.08785-1.70221-3.23065-.19853-.63833.23038-1.49584.44448-2.23491,3.34376-11.54302,1.1766-22.49032-3.55474-33.167-.31175-.70346-.78806-1.44537-.76826-2.1578.0282-1.01581.4447-2.02084.6953-3.03049.89833.49326,2.31355.77788,2.61069,1.5139,1.86272,4.61366,3.93627,9.22305,5.03445,14.04035.97375,4.27133.77202,8.81064,1.17799,14.46877Z"
    />
    <path
      d="M366.51124,185.41441c-1.3441.84282-2.16897,1.52947-3.11544,1.92571-5.67923,2.37772-11.37138,4.72706-17.10343,6.97314-.71119.27869-1.68387-.10992-2.53538-.18931.09662-.72538.03519-1.51953.31615-2.16461,1.47959-3.39665,16.70201-9.96695,20.07834-8.63076.74847.29625,1.29018,1.11495,2.35977,2.08583Z"
    />
  </g>
</svg>