<?xml version="1.0" encoding="UTF-8"?>
<svg id="a" data-name="Layer 1" xmlns="http://www.w3.org/2000/svg" viewBox="0 0 151.31755 25">
  <path d="M1.57767,21.26282l.31577-.06483-.43425-.16112.39456-.06388-.47336-.16112.43367-.06483-.51247-.16112.43367-.06483-.51247-.16112.51247-.06388-.51247-.16112.51247-.06483-.51247-.16112.51247-.06388-.51247-.16112.51247-.06483-.51247-.16112.51247-.06388-.51247-.16112.47336-.06483-.51305-.16112.51305-.09629-.51305-.16112.51305-.06483-.51305-.16112.51305-.06388-.55216-.16112.55216-.06483-.55216-.16112.51247-.06388-.55216-.16112.55216-.06483-.59185-.16112.55274-.06388-.55274-.16112.55274-.06483-.59185-.16112.55216-.06483-.59185-.16016.59185-.06483-.63095-.16112.59126-.06483-.63095-.16112.63095-.06388-.67064-.16112.63154-.06483-.67064-.16112.67064-.06388-.71033-.16112.67064-.06483-.70975-.16112.70975-.06388-.74944-.16112.71033-.06483-.71033-.16112.71033-.06388-.74944-.16112.70975-.06483-.74944-.16112.74944-.06483-.78913-.16016.74944-.06483-.78854-.16112.78854-.09629-.82823-.16207.78913-.06388-.78913-.16112.78913-.06483-.82823-.16016.78854-.06483-.82823-.16112.82823-.06388-.86792-.16159.82882-.06435-.82882-.16112.82882-.06435-.86792-.16112.82823-.06435-.86792-.16112.86792-.06435-.90703-.16112.90703-.06483-.90703-.16064.86792-.06483-.90761-.16112.90761-.06435-.94672-.16112.90703-.06435-.90703-.16112.90703-.06435-.94672-.16112.94672-.06435-.98641-.16112.94672-.06435-.94672-.16112.94672-.06435-.98583-.16112.98583-.06435-.98583-.16112.98583-.06435-.98583-.16112.94672-.06435-.98641-.16112.98641-.06483-.98641-.16064.98641-.09677-.98641-.16112.98641-.06435-1.02552-.16112,1.02552-.06435-1.02552-.16112,1.02552-.06435-1.02552-.16112,1.02552-.06483-1.02552-.16064.98583-.06483-.98583-.16112.98583-.06435-.98583-.16112.98583-.06435-.98583-.16112,1.06462-.06435-1.06462-.19306,1.02552-.06483-1.02552-.16112,1.02552-.06435-1.02552-.16112,1.02552-.06435-1.02552-.16112,1.02552-.06435-1.02552-.16112,1.02552-.06435-1.02552-.16112,1.02552-.06435-1.02552-.16112,1.02552-.06435-.98641-.16112.98641-.06435-.98641-.16112.98641-.09677-.98641-.16112,1.02552-.06435-.98583-.16112.98583-.06435-.98583-.16112.98583-.06435-.94672-.16112.98641-.06435-.94672-.16112.94672-.06435-.90703-.16112.94672-.06435-.90761-.16112.98641-.06435-.94672-.19353,1.02552-.06435-.98641-.19353,1.06521-.06435-.98641-.25788,1.06521-.03194-.98583-.25788h1.02552l-.90761-.32224,1.45977.06483-1.144-.90236,1.38039.45094-.55216-1.063.90761.77318-.0788-1.15976.67006.90188.27666-.99865.15759.70882.23639-.67641.15818.70882.27608-.67641.0788.61206.23697-.58012.1179.54771.19728-.48335.0788.51577.19728-.48335.0788.51529.19728-.45094.07938.48335.1967-.45094.11849.48288.19728-.41853.0788.41853.19728-.38659.0788.419.19728-.38659.11849.419.19728-.35465.0788.38659.19728-.35417.0788.38659.19728-.32224.0788.35417.23697-.32224.0788.32224.19728-.25741.0788.28982.19728-.25788.0788.28982.19728-.22547.11849.25788.19728-.22547.0788.28982.31577-.22547.0788.25788.27608-.19353.11849.2903.35487-.19353v.32224l.51247.03194-.03911.22595.35487.03194-.15759.22547.23639.16112-.15759.09677.11849.16112-.11849.09677.11849.16064-.11849.09677.0788.12918-.0788.09629.03969.19353-.07938.06435.03969.16112-.03969.09677v.16112l-.03911.1287v2.44823l.03911.2903v.03194l.03969.22547-.03969.03241.07938.19306-.03969.03241.0788.19306-.0788.06483.0788.16112-.03911.06435.0788.16112-.0788.06435.1179.16112-.1179.06435.1179.19306-.1179.06483.1179.16064-.1179.06483.1179.16112-.1179.06435.1179.16112-.1179.06435.0788.16112-.0788.06435.0788.16112-.0788.09677.0788.16064-.11849.06483.0788.16112-.0788.06435.0788.16112-.0788.06435.03969.16112-.03969.06435.03969.16112-.07938.09677.03969.1287-.03969.09677.03969.16112-.03969.06435.03969.16112-.03969.06435.03969.16112-.03969.06435.03969.16112-.03969.06435.03969.16112-.03969.06435.07938.16112-.03969.06435.0788.19353-.0788.03194.11849.19353-.0788.03194.1179.19401-.0788.03146.11849.19353-.0788.06483.1179.16016-.1179.06483.19728.16112-.15818.06388.19728.22595-.15759.06483.23639.16112-.19728.06388.23697.19353-.23697.06483.27666.19258-.23697.06483.27608.16112-.23639.06483.27608.19258-.27608.06483.31518.19353-.27608.06388.31577.16112-.31577.06483.31577.19353-.31577.06388.35487.16112-.43367.09629.43367.25836-.15759.06388.19728.03241-.23639.16112.35487.03241-.11849.06388h.0788l-.11849.12966.27666-.09724-.07938.25836.31577-.12966v.22595l.27608-.22595.0788.25836.19728-.25836.0788.25836.19728-.25836.0788.25836.19728-.25836.07938.25836.23639-.25836.0788.25836.23697-.28982.0788.25741.19728-.25741.0788.25741.19728-.28982.0788.28982.19728-.28982.0788.25741.19728-.28982.0788.28982.19728-.32224.0788.28982.23697-.32224.0788.32224.19728-.3537.0788.32224.19728-.32224.0788.32224.19728-.35465.0788.32224.19728-.35465.0788.35465.19728-.38706.0788.35465.23697-.38611.0788.38611.19728-.38611.0788.38611.19728-.41853.0788.41853.19728-.41853.0788.38611.19728-.38611.0788.38611.19728-.41853.07938.41853.23639-.41853.0788.41853.19728-.45094.0788.41853.19728-.41853.0788.41853.19728-.41853.07938.48335.27608-.48335.0788.45094.23639-.48335.11849.51577.23697-.51577.0788.51577.31518-.51577.07938.54818.31518-.51577.03969.77318.82823-.64447-.23639.74172.94672-.35465-.39456.48335.70975-.25836-.51247.67689.94672-.09629-.43425.16112h.51305l-.0788.03146h.0788l-.59185.16112.67064.09724-.67064.22499.78913.1287-.74944.16112.78854.19353-.67064.09629.71033.22595-.67064.06483.67064.22499-.63095.03241.63095.19353-.59185.06388.63154.19353-.63154.06483.63154.16112-.63154.06388.67064.16112-.67064.09724.71033.16016-.71033.09724.74944.19353-.74944.06388.74944.22595-.78854.03241.78854.25741-.78854.03241.78854.25741h-1.2228l1.02552.838-1.2228-.32224.67064.99817-1.02552-.57964.39456,1.09541-.78913-.838-.11849,1.09541-.23639-.70835-.11849.77318-.23639-.74076-.19728.80464-.15818-.77318-.23639.80559-.11849-.74076-.23639.77318-.11849-.67689-.19728.67689-.0788-.67689-.23697.7093-.0788-.7093-.19728.7093-.11849-.7093-.1967.7093-.07938-.67689-.23639.67689-.0788-.67689-.19728.67689-.11849-.67689-.19728.7093-.0788-.7093-.23697.7093-.0788-.74172-.23639.74172-.0788-.67689-.19728.67689-.07938-.67689-.1967.67689-.07938-.7093-.19728.7093-.0788-.7093-.19728.67689-.0788-.67689-.19728.67689-.0788-.67689-.19728.67689-.0788-.67689-.23639.67689-.07938-.67689-.19728.67689-.0788-.67689-.19728.67689-.0788-.67689-.19728.67689-.0788-.67689-.19728.67689-.0788-.67689-.19728.67689-.0788-.64447-.19728.67689-.0788-.67689-.23697.67689-.0788-.67689-.19728.67689-.0788-.67689-.19728.70835-.0788-.70835-.19728.70835-.0788-.67593-.19728.70835-.0788-.70835-.19728.70835-.0788-.70835-.19728.74076-.0788-.70835-.19728.70835-.11849-.70835-.19728.74076-.0788-.74076-.19728.74076-.0788-.74076-.19728.74076-.0788-.74076-.19728.74076-.0788-.74076-.19728.74076-.0788-.74076-.19728.74076-.07938-.74076-.1967.74076-.11849-.74076-.19728.70835-.0788-.70835-.19728.70835-.0788-.70835-.19728.70835-.07938-.74076-.1967.74076-.07938-.74076-.19728.70835-.0788-.70835-.19728.70835-.1179-.77318-.19728.77318-.0788-.74076-.23697.70835-.0788-.70835-.19728.70835-.0788-.74076-.19728.7093-.0788-.7093-.23697.67689-.0788-.67689-.19728.64447-.0788-.67689-.19728.64447-.0788-.67593-.23697.64352-.0788-.67593-.19728.61206-.0788-.61206-.19728.57964-.11849-.61206-.1967.54723-.07938-.57964-.19728.54818-.0788-.5806-.23639.51577-.0788-.61206-.23697.54723-.11849-.61206-.27608.54818-.03911-.64447-.39456.54818v-.61301l-.39456.45189.0788-.7093-.86792.41853.39456-.64352-.82823.06388.59185-.38611-.82882-.12966.59185-.28982-.67064-.22499.51305-.09724-.43425-.22499.43425-.06483-.39456-.19258.19728-.03241-.11849-.03241.31577-.06483-.39456-.19258ZM10.88728,4.60664v-.41853.35417l-.03969.32224v.54771l-.03911.19306.03911.06483-.03911.19306.03911.06435v.38659l.03969.09677v.28982-.48288l-.03969-.06483.03969-.16112-.03969-.06435.03969-.19306-.03969-.06435.03969-.19353-.03969-.06435.03969-.16112-.03969-.09677.03969-.16112-.03969-.09629.03969-.19353v-.09677Z" fill="#000" stroke-width="0"/>
  <path d="M33.05697,23.19529l.35487-.57964-.59185.38611.35546-.57964-.55274.38706.31577-.54818-.55216.32224.31577-.48335-.55274.28982.31577-.45094-.55216.28982.31577-.45094-.59185.28982.31518-.45094-.59126.25836.35487-.41948-.63095.25836.39398-.45094-.63095.25741.43367-.48335-.70975.22595.55216-.48335-.82823.19353.59185-.41948-.78913.09724.55216-.35465-.70975.06388.59126-.28982-.70975.03241.59185-.25741h-.67064l.55216-.22595-.63095-.03241.55216-.22499h-.59185l.51305-.22595-.59185-.03146.51247-.19353-.55216-.06483.51305-.16112-.55216-.06388.47336-.19353-.51305-.03241.47336-.19353-.51305-.06388.43425-.16112-.47336-.06483.43367-.16112-.47336-.09629.43425-.1287-.47336-.09724.43367-.16112-.47336-.06388.39456-.16112-.43367-.06483.39398-.16112-.47336-.09629.43425-.1287-.47336-.09724.39456-.1287-.47336-.09629.39398-.1287-.47336-.09724.43425-.1287-.51305-.09629.43425-.1287-.51305-.09724.43425-.1287-.51305-.09629.43367-.1287-.51247-.09724.43367-.1287-.55216-.09629.47336-.12966-.59185-.09629.51305-.1287-.59185-.09629.51305-.12966-.63154-.09629.55274-.1287-.63154-.09724.55216-.12775-.67064-.09724.63154-.12966-.71033-.09534.63154-.16207-.71033-.09629.67064-.1287-.74944-.09677.67064-.1287-.74944-.09677.70975-.16112-.74944-.09677.74944-.1287-.78854-.1287.78854-.12918-.82823-.16112.78913-.09629-.82882-.19353.78913-.06435-.82823-.19353.74944-.06435-.74944-.16112.74944-.06435-.78913-.16112.78913-.06435-.78913-.19353.78913-.03194-.82823-.19353.82823-.03194-.82823-.19353.82823-.06435-.82823-.19306.82823-.03241-.82823-.19306.86792-.03241-.82882-.22547.86792-.03241-.82823-.22547h.86792l-.82882-.25741.86792.03194-.78854-.25788h.86734l-.78854-.25741.90703.03194-.78854-.35417.90703.09677-.74944-.38659.74944.09629-.63095-.32176.74944.09629-.59185-.32224.70975.09677-.55216-.28982.71033.09677-.51305-.32224.63154.09677-.47336-.32224.59126.09677-.43367-.2903.59185.09677-.39456-.28982.55216.06435-.35487-.28982.51247.09629-.31518-.28982.47336.09677-.27608-.28982.43367.06435-.23697-.25788.39456.06435-.19728-.25741.39456.06435-.19728-.25788.35546.06435-.11849-.25741.31518.09629-.0788-.25741.27608.06435-.0788-.25788.27608.06435v-.25741l.23697.09677.0788-.25788.19728.09677.0788-.22547.15759.09629.07938-.22547.19728.09677.0788-.22547.15759.09677.0788-.19353.15818.09677.1179-.22547.15818.09677.0788-.19353.15759.09677.11849-.22547.15759.1287.0788-.25788.15818.12918.0788-.22547.15759.1287.11849-.25788.15759.16112.0788-.25788.19728.16112.07938-.25741.15759.16112.0788-.2903.19728.19353.0788-.28982.15759.19306.07938-.28982.19728.19306.0788-.28982.15759.19353.11849-.32224.15759.22547.0788-.32224.19728.22547.0788-.32224.15818.22547.0788-.32176.19728.22547.0788-.35465.19728.25788.03969-.35465.1967.25788.07938-.35417.19728.25741.0788-.35417.19728.28982.03911-.38659.19728.28982.0788-.38659.19728.2903.0788-.38659.19728.32224.03969-.419.23639.32224.03969-.38659.23639.32224.03969-.419.23697.32224.03911-.419.23697.35465.03911-.419.23697.35465.03911-.45142.23697.38659.0788-.45094.19728.38659.0788-.45094.19728.38659.11849-.45094.19728.41853.15759-.48288.15759.48288.23697-.51529.11849.48335.27608-.48335.0788.419.23639-.419.03969.419.27608-.419.03969.45094.23639-.41853.0788.41853.23697-.41853.0788.45094.23639-.45094.03969.45094.27608-.419.03969.45094.27608-.41853.03911.45094.27608-.45094.03969.48335.27608-.45142v.48335l.35487-.41853-.03911.48288.39456-.45094-.03969.48335.31577-.45094-.03969.48335.35487-.419-.03911.48335.35487-.45094-.03969.51529.35546-.45094-.0788.48288.39398-.41853-.0788.51529.39456-.45094-.11849.51529.43425-.45094-.11849.51577.43367-.45142-.1179.54771.47336-.45094-.19728.54771.51247-.45094-.19728.54771.51305-.45094-.23639.54771.55216-.45142-.23697.54771.55216-.41853-.27608.51529.55216-.419-.27608.54771.55274-.41853-.31577.54771.59185-.419-.31577.54771.59185-.38659-.35546.51529.63154-.38659-.35487.51577.59126-.35465-.35487.51577.63095-.35465-.43367.51577.67064-.32224-.43425.51529.67064-.32224-.43367.51577.67064-.32224-.43367.51529.67006-.28982-.47336.48335.71033-.25788-.51305.48335.71033-.22547-.51305.41853.71033-.19306-.51305.41853.71033-.16112-.51305.38659.67064-.1287-.51305.35417.67064-.1287-.51247.35465.63095-.12918-.51247.35465.67006-.09677-.51247.32224.63095-.06435-.51247.28982.63095-.03241-.51305.25788h.63154l-.51305.25788h.63095l-.51247.22547.59185.03194-.43425.19353h.47336l-.47336.22547h.59185l-.51305.28982.63154.03241-.51305.22547.59185.06435-.51305.16112.55216.1287-.47336.12918.51305.1287-.47336.1287.51305.09677-.47336.1287.51247.12918-.47336.1287.51305.1287-.47336.09677.51247.1287-.47336.09677.47336.16112-.47336.09677.51305.1287-.47336.09677.47336.16112-.47336.09677.47336.1287-.47336.09677.51305.16112-.51305.06435.47336.16112-.47336.09629.47336.16112-.47336.06435.47336.16112-.47336.06483.43367.16064-.43367.09677.39456.16112-.43425.06435.43425.16112-.43425.06435.39456.16112-.43367.09677.39456.16112-.39456.06435.35487.16112-.39456.06435.35487.16112-.35487.06435.31577.19401-.35487.06388.31518.16112-.35487.06483.35487.19258-.35487.06483.31577.16112-.31577.06388.27608.19353-.31577.06483.31577.16112-.31577.06388.31577.19353-.31577.06483.31577.16112-.31577.06388.31577.19353-.31577.06483.35546.19258-.35546.03241.35546.19353-.35546.06388.39456.19353-.39456.03241.39456.22595-.39456.03146.43425.22595-.43425.03241.43425.25741h-.47336l.43367.25741h-.51247l.51247.28982-.55216-.03146.47336.32224-.51247-.06483.47336.32224-.51305-.09629.43367.32128-.55216-.09629.47336.32224-.55216-.09629.43367.32224-.51247-.09724.43367.32224-.55216-.09629.39456.32224-.51305-.09724.39456.32224-.55216-.1287.39456.35465-.51305-.1287.35546.32128-.51305-.1287.35487.35465-.51247-.16112.31518.35465-.47336-.1287.31577.3537-.47336-.16112.27608.35465-.47336-.16112.27608.35465-.43367-.16112.23639.38611-.43367-.19258.23639.38611-.43367-.19353.19728.41948-.47336-.25836.15759.48335-.39456-.25741.15818.41853-.39456-.25741.1179.45094-.35487-.28982.11849.45094-.35487-.28982.0788.41853-.31577-.28982.0788.45094-.31518-.32224.03911.45094-.31518-.32224.0788.45094-.31577-.32224.03969.45094-.31577-.32128.0788.45094-.31518-.35465.03911.48335-.31577-.35465.03969.45094-.31577-.35465.03969.45189-.27608-.35465v.45094l-.27608-.35465v.45094l-.27608-.3537v.41853l-.27608-.32224v.41853l-.27608-.3537v.41853l-.23697-.32224-.03969.38611-.23639-.28982-.03969.38706-.23639-.32224-.03969.38611-.27608-.3537-.03911.45094-.27666-.38706-.15759.45094-.15759-.32224-.15818.35465-.15759-.32224-.15759.35465-.15818-.32224-.1179.35465-.15818-.32224-.15759.35465-.15759-.29078-.15818.32224-.1179-.32224-.19728.35465-.11849-.32224-.15759.35465-.11849-.32224-.19728.35465-.11849-.32224-.15759.35465-.11849-.32224-.19728.3537-.11849-.32224-.1967.35465-.07938-.35465-.19728.38706-.1179-.35465-.19728.38706-.11849-.38706-.23697.41853-.0788-.38611-.23639.38611-.03969-.38611-.23639.38611-.0788-.38611-.23697.38611-.03969-.38611-.23639.38611-.03969-.38611-.27608.38611-.03911-.41853-.23697.41853-.03911-.41853-.23697.38706-.03911-.41948-.27666.41948v-.41948l-.27608.41948-.03911-.45094-.27608.41853v-.45094l-.27608.45094v-.45094l-.27608.41853v-.45094l-.31577.41853v-.45094l-.27608.45094v-.48335l-.31577.45189.03969-.48335-.35546.45094.03969-.48335-.31577.45094.03969-.48335-.35487.45094.0788-.51577-.39456.48335.0788-.51482-.39456.48335.11849-.54818-.43367.48335.1179-.54818-.43367.51577.15759-.61206-.51247.51577.19728-.61206-.55274.51482.27666-.64352-.63154.51482.35487-.67593-.78854.51482.39456-.54723-.31577.16112-.27608.28982.0788-.16112-.15759.09629.39456-.51482.03911-.06483-.63095.45094ZM43.90456,16.43023l.35546.09629-.35546-.3537.31577.06388-.39456-.25741.39456.06388-.47336-.25741.47336.03241-.55216-.22595.59185.03241-.55274-.19353h.63154l-.55216-.19258h.59126l-.55216-.19353.63154-.03241-.59185-.16112.63095-.03241-.59185-.19353.63154-.03146-.55216-.19353.59126-.03241-.55216-.19353.59185-.06388-.55216-.16112.59126-.06388-.55216-.19449.55216-.06388-.51247-.16112.55216-.06483-.51305-.16016.51305-.06483-.47336-.16112.51305-.06435-.47336-.16112.51247-.06435-.51247-.16112.51247-.06483-.47336-.16064.51305-.06483-.47336-.16112.47336-.06435-.43425-.16112.43425-.06435-.43425-.16112.43425-.06435-.43425-.16112.47336-.06435-.43367-.16112.43367-.06435-.43367-.16112.43367-.09677-.43367-.1287.39456-.09677-.39456-.1287.39456-.06435-.39456-.16112.39456-.06435-.39456-.12918.39456-.09677-.39456-.09629.35487-.09677-.39456-.1287.35546-.09677-.35546-.09677.31577-.09677-.35487-.09629.31518-.12918-.35487-.06435.31577-.1287-.35487-.03241.27608-.16112-.35546-.03194.27666-.16112h-.31577l.23639-.19353h-.35487l.23697-.16112h-.31577l.15759-.19306-.31518.03194.19728-.19306-.31577.03241.15759-.19353-.31518.06435.1179-.19306-.27608.06435.0788-.19353-.23639.06435.03911-.19306-.23639.09677.03969-.19353-.27666.09677.03969-.19353-.23639.09677-.03969-.16112-.15759.12918-.07938-.19353-.15759.16112-.0788-.16112-.15759.1287-.07938-.1287-.15759.16112-.11849-.16112-.15759.16112-.11849-.1287-.11849.19306-.15759-.1287-.11849.16112-.1179-.09677-.11849.19353-.15759-.12918-.07938.19353-.15759-.09677-.0788.19306-.15759-.09629-.07938.19306-.15759-.06435-.0788.19353-.15759-.06483-.03969.19353-.15759-.06435-.03969.19306-.15759-.03194-.03969.19306-.11849-.03194v.16112h-.15759l.03969.19306h-.19728l.0788.19353-.15759.03194.0788.19353h-.19728l.11849.19306-.15818.03241.0788.19306-.15759.03241.11849.19306-.15818.06435.11849.16112-.15759.06483.11849.16064-.15818.06483.11849.19306-.15759.03241.15759.19306-.15759.06435.1179.16112-.15759.06435.15759.19353-.15759.06435.15759.16112-.15759.06435.11849.16112-.11849.06435.11849.19353-.11849.06435.11849.16112-.11849.06435.15759.16112-.15759.06435.15759.16112-.15759.06435.15759.16112-.15759.06435.15759.19353-.15759.06435.19728.16112-.15759.06435.19728.16112-.19728.06388.19728.16207-.15818.06388.19728.16112-.19728.06483.23697.16016-.19728.09724.23639.1287-.19728.09724.27666.1287-.23697.09629.27608.16112-.23639.06483.31518.16112-.27608.09629.31577.1287-.23697.09724.31577.1287-.27608.09629.35487.1287-.27608.09724.39456.09629-.27608.1287.39456.06483-.31577.1287.43367.03241-.27608.16112h.39456l-.27608.16112h.43425l-.27666.16112.43425-.06483-.27608.19353.43367-.06483-.23639.19353.43367-.1287-.27608.25741.43367-.16112-.23639.25741.39456-.19258-.19728.25741.35487-.19353-.19728.32224.35487-.25741-.15759.32224.31577-.25836-.03969.12966.11849-.12966-.0788.25836.15759-.22595v.32224l.15759-.28982.03969.35465.11849-.35465.0788.38706.11849-.35465.1179.38611.07938-.38611.15759.38611.03969-.38611.19728.38611.03911-.38611.19728.38611.03969-.38611.19728.35465v-.38706l.23639.32224v-.35465l.23697.28982v-.32224l.23639.25836-.03969-.32224.27666.22499-.07938-.28982.27608.19353-.0788-.28982.23697.16112-.11849-.25741.27608.1287-.0788-.09724-.11849-.09629.0788.03241-.03911-.06483.27608.09724.11849.03146-.35546-.38611Z" fill="#000" stroke-width="0"/>
  <path d="M61.22159,18.52381l.51247-.06388-.55216-.16112.51305-.06483-.51305-.16112.51305-.06388-.55216-.16112.51247-.06483-.55216-.16112.55216-.06388-.55216-.16112.55216-.06483-.51247-.16112.55216-.06483-.55216-.16016.55216-.06483-.55216-.16112.55216-.06483-.51305-.16112.51305-.06388-.51305-.16112.51305-.09629-.51305-.12966.51305-.09629-.51305-.16112.51305-.06483-.51305-.16112.51305-.06388-.55216-.16112.55216-.06483-.55216-.16112.55216-.06388-.55216-.16112.55216-.06483-.55216-.16112.51247-.06388-.51247-.16112.51247-.06483-.55216-.16112.55216-.06388-.55216-.16207.55216-.06388-.51247-.16112.55216-.06483-.55216-.16016.55216-.06483-.55216-.16112.55216-.06388-.51305-.16159.51305-.06435-.51305-.16112.55216-.06435-.51247-.16112.51247-.06435-.47336-.16112.51305-.06435-.47336-.16112.47336-.06483-.43425-.16064.47336-.06483-.47336-.16112.47336-.06435-.43367-.16112.43367-.06435-.39398-.16112.43367-.06435-.43367-.16112.43367-.09677-.39456-.1287.39456-.09677-.39456-.1287.43425-.09677-.39456-.16112.39456-.06435-.39456-.16112.39456-.06435-.39456-.16112.39456-.06435-.35546-.16112.35546-.06435-.35546-.16112.39456-.06435-.39456-.16112.39456-.06435-.35487-.16112.35487-.06435-.35487-.16112.35487-.06435-.35487-.16112.35487-.06483-.31518-.16064.35487-.06483-.35487-.16112.35487-.06435-.35487-.16112.35487-.06435-.31577-.16112.31577-.06435-.31577-.16112.35487-.06435-.31518-.16112.31518-.06435-.27608-.16112.31577-.06435-.31577-.19353.31577-.06435-.27608-.19306.27608-.06483-.27608-.16064.27608-.06483-.27608-.19306.31577-.06435-.27666-.16112.27666-.06435-.27666-.19353.27666-.06435-.27666-.16112.27666-.06435-.27666-.19353.27666-.06435-.27666-.16112.27666-.06435-.31577-.19306.27608-.06483-.27608-.16064.27608-.06483-.27608-.19306.31577-.06435-.31577-.22547.31577-.06483-.31577-.22547.35487-.03194-.31577-.2903h.39456l-.31518-.28982h.39398l-.27608-.32224.51305.09677-.23697-.54771.47336.19353-.03911-.48335.39456.28982.15759-.57964.31577.35417.23639-.51529.19728.35417.19728-.38659.15759.32224.19728-.38659.15818.35417.23639-.38659.0788.35465.23697-.35465.11849.32224.19728-.32224.0788.32224.23639-.32224.0788.2903.19728-.32224.0788.32224.19728-.32224.07938.32224.1967-.35465.07938.32224.23639-.32224.0788.32224.19728-.35417.0788.35417.19728-.38659.0788.38659.23697-.41853.0788.38659.23697-.419.0788.419.27608-.419.03911.45094.31577-.48335.03969.48335.31518-.48335v.64447l.59185-.57964-.11849.67641.67064-.51577-.27608.58012.67064-.38659-.43367.64447.98583-.2903-.67064.51577.98641-.09677-.74944.419,1.06521.03194-.86792.38659,1.06521.1287-.86792.19353.90703.19306-.78854.12918.82823.19306-.74944.09677.78854.19353-.74944.09629.74944.16112-.70975.09677.70975.16112-.70975.06435.70975.16112-.70975.09677.70975.16112-.70975.06435.67064.16112-.67064.09677.67064.16064-.67064.06483.63095.16112-.63095.06435.63095.19306-.67064.06435.63154.16112-.63154.06435.63154.16112-.63154.06483.59185.16064-.63095.06483.63095.19306-.63095.06435.59126.16112-.59126.06435.59126.16112-.63095.06435.59185.19353-.51305.06435.51305.12918-.43425.06435.43425.09629h-.03969.03969l-.47336.22595.59185-.03241-.23697.1287.11849-.03194.11849-.06435-.03969.03194h.03969l-.03969.06435-.15759.2903.39456-.25788-.07938.1287.11849-.09677v.09677l.03969-.09677v.35465l.19728-.32224.03911.419.19728-.38659.03969.45094.23639-.419.0788.419.19728-.38659.0788.41853.19728-.38659.07938.38659.1967-.35417.07938.38659.19728-.38659.0788.38659.19728-.35417.0788.38659.19728-.35465.11849.35465.1967-.35465.07938.38659.19728-.35417.0788.35417.23639-.32224.0788.32224.19728-.28982.0788.28982.19728-.25788.07938.25788.15759-.25788.0788.25788.11849-.25788.11849.25788.11732-.25788.15876.32224.2358-.35417.07938.16112.11907.06435v-.03241l-.07938-.19306.07938.03194-.03969-.06435.1179.06435.03969-.09629.1179.1287-.07821-.25788.07821.03241-.03969-.03241.27666.03241-.23697-.22547.31635-.03241-.31635-.19306.31635-.03241-.31635-.16112.35487-.03194-.35487-.19353.35487-.03194-.35487-.19353.35487-.06435-.39456-.16112.39456-.06435-.43309-.19353.39456-.06435-.43425-.16112.39456-.06435-.43425-.16112.39456-.06435-.43425-.19353.43425-.06435-.47278-.16112.43309-.06435-.51247-.16112.47278-.06435-.51247-.19306.51247-.06483-.55216-.16064.51363-.06483-.55332-.16112.51363-.06435-.59185-.19306.59185-.06435-.63154-.16112.59185-.06435-.63037-.16112.59068-.06483-.63037-.19306.63037-.06435-.67006-.16112.67006-.06435-.70975-.22547.70975-.03241-.74944-.22547.78913-.03241-.78913-.25741.78913-.03241-.78913-.25788h1.18369l-1.02493-.74076,1.18252.28982-.70975-.90188,1.10431.54771-.47278-1.15976.90703.83753.07821-1.15976.35604.70882.07821-.80559.27666.74124.15759-.80559.15759.74076.19728-.80511.15759.74076.19728-.74076.1179.67641.19728-.70882.07938.70882.23697-.74076.1179.67641.19728-.70882.07938.70882.19728-.74076.07821.70835.23697-.74076.07938.74076.19611-.77318.11907.74124.19728-.77318.07821.74076.23697-.77318.07938.77318.19728-.80511.07821.80511.23697-.83753.07938.80559.2358-.838.07938.838.23697-.838.07821.90236.27666-.93429.03969,1.09541.43309-1.06347-.03852,1.09541.55216-1.063-.11907,1.03106.55216-.96671-.27549,1.41765,1.144-1.15976-.70975,1.35282,1.5374-.80511-.74944.70882.98641-.48335-1.18369,1.03106,1.77554-.38659-1.53857.74076,1.85375.06435-1.22221.28982,1.2619.03241-1.18369.25788,1.22338.09629-1.144.19353,1.144.1287-1.10431.12918,1.10431.16112-1.06462.09629,1.02493.16112-.98641.09677.98641.16112-1.02493.09677.94672.16112-.9082.06435.86851.16112-.90703.06435.86734.16112-.86734.06435.82765.16112-.86734.06435.82765.16112-.86734.06435.78913.16112-.82882.09677.78913.1287-.78913.09677.74944.16112-.78913.06435.74944.16112-.78796.06435.70975.16112-.70975.06435.67006.16112-.70975.06435.67006.16112-.70975.06435.67006.16112-.70975.06435.67123.16112-.67123.06435.59185.16112-.67006.06483.63037.19306-.63037.06435.59185.16112-.63154.06435.55216.16112-.55216.06435.51247.16112-.55216.06435.51247.16112-.55216.06483.47394.16064-.51363.06483.43425.16112-.47278.09629.43309.12918-.47278.09629.43425.16112-.47394.06435.39456.16112-.39456.06483.35487.16064-.39456.06483.35487.16112-.3934.06435.31518.16112-.35487.06435.31518.16112-.31518.06435.27549.16112-.31518.06435.27549.16112-.27549.09677.23697.1287-.27666.09677.23697.16112-.27666.06435.23697.16112-.23697.06435.19728.16112-.2358.06435.19728.16112-.19728.06435.15759.16112-.19728.06435.15759.16112-.15759.06483.1179.16016-.15759.09724.1179.1287-.1179.09629.1179.12966-.15759.09629.11907.16112-.11907.06483.11907.16112-.11907.06388.07938.16112-.11907.06483.11907.16112-.11907.06388.11907.16112-.11907.06483.07938.16112-.07938.06388.07938.16112-.07938.06483.07938.16112-.07938.06388.11907.19353-.07938.03241.07938.19353-.07938.06388.11907.16112-.11907.06483.11907.16112-.07938.06388.1179.16112-.1179.06483.15759.16112-.1179.06388.15759.16112-.15759.06483.19728.19353-.15759.06388.19728.19353-.19728.06483.2358.16112-.19728.06388.23697.19353-.23697.06483.27666.16112-.23697.06388.27666.19353-.27666.06388.27666.16112-.23697.06483.27549.19353-.27549.06388.31518.16112-.31518.06483.31518.19353-.27549.06388.31518.16112-.31518.06483.31518.19353-.31518.06388.31518.16112-.31518.06483.35487.19258-.35487.06483.35487.19353-.35487.06388.35487.19353-.35487.06483.35487.19258-.35487.06483.35487.22595-.39456.03146.31518.25836h-.39456l.35487.28982-.43309-.03241.31518.32224-.47278-.06483.27549.41948-.47278-.16112.15759.45094-.35487-.22595.07821.45094-.39456-.28982.03969.51577-.35487-.35465-.07938.51577-.2358-.38706-.15759.51577-.19728-.41853-.19728.48335-.11907-.41948-.19728.45094-.1179-.38611-.15759.41853-.11907-.41853-.2358.48335-.07938-.45094-.23697.48335-.07821-.45189-.19728.45189-.11907-.41948-.19728.45094-.07821-.45094-.23697.45094-.07938-.45094-.19728.48335-.07821-.48335-.23697.48335-.07821-.48335-.19728.48335-.07938-.48335-.23697.48335-.07821-.48335-.19728.45094-.07938-.48335-.27549.48335-.07938-.51482-.27666.51482-.03852-.54723-.35487.51577v-.5806l-.39456.51577.03852-.57964-.47278.48335.07938-.5806-.51363.45094.23697-.74076-.94672.38706.51247-.61206-.98641.06388.63154-.41853-.94672-.06483.70975-.3537-.82765-.19353.59185-.16112-.63154-.16112.59185-.16112-.63154-.16112.59185-.1287-.59185-.19353.59185-.09629-.59185-.19353.55216-.06483-.55216-.22499.51247-.06483-.51247-.16112.51247-.06388-.55216-.19353.55216-.06483-.55216-.16112.55216-.06388-.55216-.19353.55216-.06483-.51247-.16016.51247-.06483-.51247-.19353.51247-.06388-.51247-.16112.51247-.06483-.51247-.19353.55216-.06388-.51247-.16112.51247-.09724-.51247-.16112.51247-.06388-.51247-.16112.51247-.09629-.47278-.16112.47278-.06483-.47278-.16112.43309-.06483-.43309-.1287.39456-.09629-.43425-.09629.35487-.09724-.39456-.06388.35487-.12966-.43425-.03146.27666-.09724h-.27666l.11907-.06388-.23697.06388.19728-.22499-.27549.1287.07821-.25741-.27666.25741v-.38706l-.27549.35465v-.38611l-.27608.38611v-.41853l-.23639.38611-.07938-.41853-.23639.41853-.0788-.41853-.19728.38611-.0788-.41853-.23697.41853-.0788-.41853-.19728.38706-.0788-.38706-.19728.38706-.0788-.41948-.23697.38706-.0788-.38706-.19728.35465-.0788-.38611-.23639.38611-.07938-.38611-.19728.3537-.1179-.3537-.15818.32224-.1179-.32224-.15818.28982-.0788-.28982-.11849.28982-.15759-.28982-.11849.28982-.15759-.28982-.11849.28982-.11849-.16112v.16112l-.1179-.09724v.12966l-.23697-.12966.03969.25836-.19728-.09724.03911.16112-.27608-.06388.15818.25741h-.27608l.19728.19353-.23697.03241.15759.16112-.23639.03146.19728.16112-.23697.03241.19728.16112-.23639.06483.23639.16112-.23639.06388.19728.16112-.23697.06483.23697.19258-.23697.06483.23697.16112-.23697.06483.23697.16112-.23697.06388.19728.16112-.19728.09629.19728.16112-.23639.06483.23639.16112-.23639.06483.1967.16016-.1967.06483.15759.19353-.19728.06388.19728.16112-.19728.06483.15759.16112-.15759.06483.11849.16016-.15818.09724.15818.16112-.19728.06388.15759.19353-.15759.06483.11849.19258-.15818.09724.11849.19353-.11849.06388.0788.19353-.1179.06483.0788.19258-.19728.06483.0788.32224-.19728.03241.03969.22499h-.15818l-.03911.19353-.19728-.03241-.03969.32224-.23639-.09629-.11849.25741-.15759-.1287-.19728.25741-.15818-.1287-.23639.22499-.11849-.16016-.23639.22499-.11849-.16112-.19728.19353-.11849-.16112-.19728.19353-.0788-.16112-.19728.19258-.11849-.19258-.1967.19258-.07938-.16112-.19728.16112-.1179-.16112-.19728.16112-.0788-.16112-.19728.16112-.0788-.19258-.23697.16112-.0788-.16112-.19728.16112-.0788-.16112-.19728.1287-.0788-.1287-.19728.1287-.0788-.16112-.23697.16112-.0788-.16112-.23697.1287-.0788-.16112-.23639.1287-.0788-.16112-.23697.1287-.0788-.16016-.27608.09629v-.16112l-.31577.09629v-.25741l-.51247.09629.0788-.25741-.39456-.03241.0788-.1287-.31577-.03241.15818-.19258-.39456-.03241.19728-.19353-.39456-.1287.23639-.16112-.35487-.16112.23697-.09629-.35546-.19353.27666-.09724-.35546-.16112.31577-.09629-.35487-.16112.31518-.09629-.39398-.16112.31518-.06483-.39456-.19353.39456-.06388-.43367-.16112.39456-.06483-.47336-.19258.43367-.06483-.47336-.16112.43367-.06483-.47336-.19258.47336-.06483-.47336-.16112.43425-.06388-.47336-.16112.47336-.06483-.51305-.19353.23697-.03241-.23697-.03146.51305-.06483-.55216-.19353Z" fill="#000" stroke-width="0"/>
  <path d="M94.98831,19.68406l.39456-.06483-.47394-.16112.43425-.06388-.51247-.16112.47278-.06483-.59185-.16112.51363-.06388-.59185-.16112.59185-.09724-.59185-.16112.59185-.06388-.59185-.16112.59185-.06483-.59185-.16112.59185-.06388-.59185-.16112.59185-.06483-.55216-.16112.55216-.06388-.55216-.16112.55216-.06483-.55216-.16112.59185-.06483-.59185-.16016.59185-.06483-.59185-.16112.59185-.06483-.55332-.16112.55332-.06388-.55332-.16112.55332-.06483-.55332-.16112.55332-.06388-.55332-.16112.55332-.09724-.51363-.16112.55216-.06388-.55216-.16112.55216-.06483-.55216-.16112.55216-.06388-.55216-.16112.55216-.06483-.55216-.16112.55216-.06388-.55216-.16112.55216-.06483-.55216-.16112.55216-.06388-.55216-.16207.55216-.06388-.51247-.16112.51247-.06483-.51247-.16016.51247-.06483-.51247-.16112.51247-.06388-.47278-.16159.51247-.09677-.51247-.1287.51247-.09677-.51247-.16112.51247-.06435-.47278-.16112.51247-.06435-.47394-.16112.47394-.06435-.47394-.16112.47394-.06435-.43425-.16112.47394-.06435-.47394-.16112.47394-.06435-.43425-.16112.43425-.06483-.43425-.16064.47394-.06483-.43425-.16112.43425-.06435-.43425-.16112.43425-.06435-.39456-.16112.43309-.06435-.43309-.16112.43309-.09677-.39456-.1287.39456-.09677-.39456-.16112.39456-.06435-.35487-.16112.39456-.06435-.39456-.16112.39456-.06435-.39456-.16112.39456-.06435-.35487-.16112.35487-.06435-.35487-.16112.35487-.06435-.35487-.16112.35487-.06435-.35487-.16112.35487-.06435-.35487-.16112.35487-.06435-.35487-.16112.35487-.06483-.35487-.16064.35487-.06483-.35487-.16112.35487-.06435-.39456-.16112.39456-.09629-.39456-.16112.39456-.09677-.39456-.16112.39456-.06435-.39456-.16112.35487-.06435-.39456-.16112.39456-.06435-.39456-.19353.39456-.06435-.43309-.16112.39456-.06435-.43425-.16112.43425-.06435-.47394-.19353.43425-.06435-.43425-.16112.43425-.06435-.47394-.19306.47394-.03241-.51363-.19306.47394-.06483-.47394-.16112.47394-.06435-.51247-.19306.55216-.06435-.51363-.19353.55332-.06435-.55332-.22547.63154-.03241-.55216-.32224.74944.03241-.55216-.48335.67006.19353-.35487-.54771.71092.25741-.27666-.70835.63154.38659v-.61206l.31518.38659.1179-.51577.27666.419.15759-.48335.23697.419.19728-.419.15759.35417.19728-.35417.1179.32224.19728-.28982.11907.32176.19728-.28982.07821.28982.19728-.25741.11907.25741.19728-.22547.07821.25788.19728-.22547.07938.25788.19728-.19353.1179.19353.19728-.16112.07938.19306.19611-.19306.07938.19306.19728-.16112.07938.16112.19728-.16112.07821.19353.23697-.19353.07821.16112.19728-.16112.07938.16112.19728-.16112.07938.16112.19728-.19306.07821.19306.19728-.19306.07938.16112.19728-.19353.07821.19353.19728-.19353.07938.19353.19728-.22547.07821.19306.23697-.22547.07938.22547.19728-.22547.07821.22547.19728-.25788.07938.25788.19728-.25788.07821.22547.19728-.22547.07938.22547.19728-.22547.07821.22547.19728-.22547.07938.22547.19728-.22547.07821.22547.19728-.22547.07938.25788.19728-.25788.07938.25788.19611-.25788.11907.22547.19728-.22547.07821.22547.19728-.22547.07938.22547.19728-.25741.07821.25741.19728-.28982.07938.25788.19728-.28982.07938.25741.19728-.28982.07821.28982.19728-.32224.07938.2903.19728-.32224.07821.28982.19728-.32224.07938.32224.19728-.38659.07821.35465.23697-.38659.07938.35417.19728-.38659.07821.38659.19728-.419.07938.38659.19728-.41853.07821.41853.19728-.45094.07938.419.19728-.419.07821.419.19728-.419.07938.419.19728-.419.07821.419.19728-.419.07938.419.19728-.419.1179.45094.19728-.41853.07938.41853.15759-.41853.1179.45094.19728-.419.11907.419.19728-.419.07821.45142.23697-.419.07938.419.2358-.38659.07938.41853.23697-.41853.07821.41853.27666-.38659.03969.419.31518-.35465.03969.419.31518-.38659v.41853l.35487-.32176-.03969.54771.71092-.38659-.15759.54723.74944-.22547-.35604.48335.78913-.1287-.43309.38659h.74944l-.47394.25741.63154.03241-.51363.22547.67123.09677-.59185.16112.70975.16112-.63037.1287.70975.19353-.63154.09629.67123.19353-.59185.06435.67006.19353-.67006.09629.70975.19353-.67006.06435.70975.22547-.74944.06435.78913.25788-.82882.03194.78913.32224-.82882-.03194.78913.38659-.86734-.06435.78913.41853-1.18369-.19306.82765.90188-1.06462-.45094.43425.99865-.86851-.61206.23697.99865-.63154-.80559-.15759,1.06347-.35487-.70882-.07938.80511-.27549-.70882-.15759.77365-.19728-.70882-.19728.74076-.15759-.67641-.19728.70882-.11907-.67689-.2358.67689-.07938-.61206-.23697.644-.07821-.644-.19728.644-.07938-.644-.23697.644-.07821-.61206-.19728.61206-.07938-.61206-.19728.58012-.07821-.61206-.19728.61206-.07938-.61206-.19728.57964-.07821-.61206-.19728.58012-.11907-.58012-.19728.54771-.07821-.58012-.19728.54771-.07938-.57964-.19728.54771-.07821-.58012-.19728.51577-.07938-.51577-.19728.45094-.07821-.48288-.19728.45094-.07938-.48335-.19728.419-.07938-.45142-.19611.419-.11907-.45094-.19728.38659-.07821-.419-.19728.35465-.07938-.38659-.19728.35417-.07821-.38659-.19728.32224-.07938-.35417-.19728.32176-.07938-.35417-.2358.28982-.07938-.32224-.19728.2903-.07821-.2903-.19728.25788-.07938-.25788-.15759.22547-.11907-.22547-.15759.22547-.1179-.22547-.15759.22547-.11907-.19306-.1179.19306-.1179-.16064-.11907.22547-.15759-.19353-.07938.22547-.1179-.1287-.07821.22547-.15876-.1287v.19306l-.15759-.09677.03969.22595-.15759-.09677.03969.19306-.15876-.06435.11907.19353-.19728-.03241.15759.16112h-.19728l.19728.1287-.31518.03241.31518.19306-.27666.06483.31635.1287-.15759.03194.19728.03241-.27666.16112.43425.03241-.15759.09629.15759-.03194-.15759.19306.35487-.09677-.15759.22595.31518-.12918-.07938.32224.39456-.28982v.28982l.23697-.25788.03969.25788.19728-.25788.03969.2903.19611-.2903.03969.32224.19728-.35417.07938.35417.19728-.35417.07821.35417.19728-.38659.07938.38659.19728-.38659.1179.38659.19728-.38659.07938.35465.19728-.38659.07821.38659.23697-.38659.07938.38659.19728-.38659.07821.38659.19728-.38659.07938.38659.19728-.419.07821.419.19728-.419.07938.419.19728-.419.1179.419.19728-.419.07938.419.19728-.419.07821.38659.19728-.38659.07938.38659.19728-.38659.07821.38659.19728-.38659.07938.38659.23697-.38659.07821.38659.19728-.38659.07938.38659.19728-.38659.07821.419.19728-.419.07938.38659.19728-.38659.07821.419.23697-.419.07938.419.23697-.419.03852.419.27666-.419.03969.45094.27549-.45094.03969.48335.31518-.45094v.48288l.35487-.41853-.03852.48335.39456-.419-.11907.67641.86851-.48335-.35604.67689.9082-.25788-.55216.54771,1.06462-.09677-.74944.48335,1.0261.16112-.59185.22547.70975.06435-.63154.19353.74944.1287-.67006.1287.70975.16112-.63154.09677.71092.19353-.67123.06435.70975.19306-.67006.09677.70975.19306-.74944.06483.74944.22547-.82765.03241.82765.32224-.90703-.03241.82882.41853-.94672-.09629.82765.51482-.90703-.19258.70975.57964-1.10431-.35465.67123.96671-.98641-.57964.31518,1.03058-.70975-.77318.07821,1.09541-.59068-.90188-.19728,1.09541-.23697-.74172-.15759.80559-.19728-.77318-.19728.838-.15759-.77318-.19728.80559-.15759-.74172-.23697.77318-.07938-.74076-.23697.77318-.07821-.74076-.23697.74076-.1179-.70835-.19728.70835-.07938-.67593-.19728.70835-.07821-.70835-.23697.70835-.07938-.74076-.19728.70835-.07821-.70835-.23697.70835-.07938-.70835-.19728.67593-.07821-.67593-.19728.67593-.1179-.70835-.19728.67689-.07938-.67689-.19728.64447-.07938-.67689-.2358.64447-.07938-.67689-.19728.61206-.07821-.61206-.23697.5806-.07938-.61206-.19728.57964-.07821-.61206-.19728.57964-.11907-.61206-.19728.54818-.07821-.5806-.23697.54818-.07938-.54818-.19728.48335-.07821-.51577-.19728.48335-.07938-.48335-.19728.41948-.07821-.45094-.15759.41853-.07938-.41853-.15759.38611-.07938-.38611-.1179.3537-.1179-.3537-.11907.32224-.1179-.29078-.03969.29078-.19728-.29078-.03969.29078-.15759-.22595v.25741l-.1179-.1287-.27666-.16112.15759.45094-.27549-.09629.1179.19353-.1179-.03241.1179.09629-.31518-.03146.27549.16016-.35487.03241.31635.16112-.35604.06483.35604.1287-.31635.06483.35487.09629-.27549.09629.31518.06483-.31518.16112.39456.03241-.07938.06388-.1179.1287.35487-.1287-.07938.22595.23697-.16112-.03969.22499.19728-.19258v.25741l.19728-.22595v.25836l.19728-.25836.03969.29078.19728-.29078.07938.29078.19611-.32224.07938.32224.15759-.35465.11907.35465.19728-.38706.07821.35465.19728-.38706.07938.38706.2358-.41948.07938.35465.19728-.38611.07938.38611.19728-.41853.07821.38611.19728-.41853.07938.41853.19728-.45094.07821.41948.23697-.45189.07938.45189.19728-.45189.07821.45189.19728-.48335.07938.48335.19728-.48335.07821.48335.19728-.48335.07938.48335.19728-.48335.07821.48335.19728-.45189.07938.45189.19728-.45189.07821.48335.19728-.45094.07938.45094.19728-.41853.07821.41853.19728-.41853.07938.45094.19728-.41853.07938.41853.19611-.38611.11907.41853.19728-.38706.07821.38706.19728-.35465.07938.38706.19728-.38706.07938.41948.19611-.38706.07938.38706.19728-.35465.1179.35465.19728-.35465.07938.35465.23697-.35465.07821.38611.23697-.3537.03969.3537.27549-.3537.03969.38611.27666-.35465.03852.38706.31635-.32224v.51577l.67006-.41948-.1179.54818.70975-.28982-.27549.51482.82765-.16112-.43309.41948.74944.03146-.47394.25836.67123.09629-.55332.22595.67123.1287-.55216.16112.63154.19353-.55332.1287.63154.19353-.55216.09629.59185.19353-.55216.06388.55216.19353-.51247.09629.55216.19353-.59185.06483.59185.22499-.59185.06483.59185.22499-.63154.03241.59185.28982h-.63154l.55216.28982-.82765-.03146.67006.67593-.82882-.16112.43425.67689-.74944-.32224.27666.77318-.63154-.48335v.77318l-.35487-.51577-.03969.64447-.35487-.54723-.1179.67689-.27666-.5806-.19728.67689-.15759-.57964-.19728.64352-.15759-.54723-.19728.57964-.11907-.54723-.19611.57964-.11907-.54723-.23697.61206-.07821-.5806-.23697.61206-.07938-.57964-.2358.57964-.07938-.57964-.23697.61206-.03852-.57964-.23697.61206-.07938-.61206-.23697.61206-.07821-.57964-.19728.61206-.07938-.61206-.2358.64447-.07938-.61206-.19728.61206-.07938-.61206-.19611.61206-.07938-.61206-.19728.64352-.07938-.64352-.19728.64352-.07821-.61206-.19728.61206-.07938-.61206-.19728.61206-.07821-.61206-.19728.61206-.07938-.61206-.19728.61206-.07821-.61206-.19728.61206-.07938-.61206-.19728.61206-.07821-.61206-.19728.61206-.07938-.61206-.19728.64447-.07821-.64447-.19728.64447-.07938-.64447-.19728.64447-.07938-.64447-.19728.64447-.07821-.64447-.19728.64447-.07938-.64447-.19728.67689-.07821-.64447-.19728.64447-.07938-.64447-.19728.64447-.07821-.64447-.19728.67689-.07938-.64447-.19728.64447-.07821-.64447-.19728.67689-.07938-.67689-.19728.70835-.07821-.67593-.19728.67593-.07938-.67593-.19728.70835-.07938-.70835-.19728.70835-.07821-.70835-.19728.70835-.07938-.70835-.19728.70835-.07821-.70835-.19728.70835-.07938-.70835-.19728.70835-.07821-.70835-.19728.70835-.07938-.70835-.19728.70835-.07821-.70835-.19728.67593-.07938-.70835-.19728.70835-.07821-.70835-.19728.67689-.07938-.67689-.19728.64447-.07938-.67689-.19728.67689-.07821-.67689-.19728.64447-.07938-.64447-.19728.61206-.07821-.67593-.19728.64352-.11907-.64352-.19611.61206-.07938-.64447-.19728.61206-.1179-.64447-.19728.64447-.07938-.64447-.23697.61206-.07821-.64447-.23697.57964-.07938-.61206-.2358.5806-.07938-.61206-.27549.57964-.03969-.64447-.31635.57964v-.61206l-.31518.51577v-.57964l-.35487.51482.03969-.77318-.71092.61206.11907-.70835-.67123.45094.23697-.45094-.47278.28982.35487-.67689-.94672.22595.63037-.51577-.94672-.1287.55216-.25741-.67006-.09724.59185-.22499-.63154-.1287.55216-.1287-.55216-.16112.51363-.12966-.51363-.19258.51363-.06483-.51363-.19353.51363-.06388-.47394-.19353.47394-.06483-.43425-.19258.43425-.06483-.43425-.19353.43425-.06388-.39456-.16112.19728-.03241-.19728-.03241.39456-.06388-.47394-.19353Z" fill="#000" stroke-width="0"/>
  <path d="M123.74477,19.97388l.78913-.06483-.63154-.16112.74944-.06388-.59185-.16112.67123-.06483-.51363-.16112.59185-.06388-.43425-.16112.47394-.06483-.47394-.16112.47394-.06388-.47394-.16112.47394-.06483-.47394-.16112.47394-.06388-.47394-.16112.47394-.06483-.47394-.16112.47394-.06483-.43425-.16016.43425-.09724-.43425-.16112.47394-.06388-.47394-.16112.47394-.06483-.43425-.16112.43425-.06388-.43425-.16112.43425-.06483-.43425-.16112.47394-.06483-.43425-.16112.43425-.06388-.43425-.16112.43425-.06483-.43425-.16112.43425-.06388-.39456-.16112.39456-.06483-.39456-.16112.39456-.06388-.39456-.16112.39456-.06483-.39456-.16112.39456-.06388-.39456-.16112.39456-.06483-.39456-.16112.39456-.06388-.43425-.16112.43425-.06483-.43425-.16112.43425-.06483-.43425-.16016.39456-.09724-.43425-.16112.43425-.06388-.43425-.16207.43425-.06388-.47394-.16112.47394-.06435-.47394-.16112.43425-.06435-.47394-.16112.47394-.06435-.47394-.16112.47394-.06435-.51247-.16112.51247-.06435-.51247-.16112.47278-.06435-.47278-.16112.47278-.06483-.47278-.16112.47278-.06435-.47278-.16112.47278-.06435-.47278-.16112.47278-.06435-.47278-.16112.47278-.06435-.47278-.16112.51247-.06435-.51247-.16112.51247-.06435-.51247-.16112.51247-.09677-.47394-.16112.47394-.06435-.47394-.16112.47394-.06435-.47394-.16112.47394-.06435-.47394-.16112.47394-.06435-.43425-.16112.47394-.06435-.47394-.16112.47394-.06435-.47394-.16112.47394-.06435-.43425-.16112.43425-.06435-.43425-.16112.43425-.06483-.43425-.16064.47394-.06483-.43425-.16112.43425-.06435-.43425-.16112.47278-.06435-.47278-.19306.43425-.09677-.39456-.16112.43309-.06435-.43309-.16112.43309-.09677-.43309-.16112.43309-.06435-.39456-.16112.39456-.09677-.39456-.16112.39456-.06435-.39456-.16112.39456-.09629-.39456-.16112.39456-.06435-.39456-.19353.43425-.06435-.39456-.16112.39456-.06435-.39456-.19353.39456-.06435-.39456-.19306.39456-.06483-.35487-.16064.39456-.06483-.39456-.22547.43425-.06435-.43425-.22547.43425-.03241-.39456-.25741.47278-.03241-.43309-.28982.51247.03194-.39456-.35417.51247.06435-.35487-.41853.55216.1287-.27549-.45094.51247.19306-.19728-.48288.43425.28982-.03969-.51577.35487.32224v-.48288l.27666.35417.07821-.45094.23697.35417.1179-.41853.19728.35417.15759-.419.15876.38659.19728-.38659.1179.35465.19728-.35465.1179.32224.19728-.28982.07938.32224.19728-.28982.07821.28982.19728-.25788.11907.28982.19728-.25741.1179.25741.19728-.22547.07938.25788.2358-.22547.07938.25788.23697-.22547.07821.22547.23697-.19353.07938.22547.2358-.19306.03969.25741.27666-.19306.03852.22547.27666-.16112.03969.22547.27549-.1287.03969.22547.31518-.09677v.19353l.31635-.06483-.03969.19353.31518-.06435-.03852.19306.31518-.03194-.07938.19306.31635-.03194-.07938.16112h.35487l-.1179.19306.35487-.03241-.1179.19353h.35487l-.15759.19306h.35487l-.15876.19353h.39456l-.19728.19306h.39456l-.19728.19353h.39456l-.19728.16112h.35487l-.19611.19306.3934-.03194-.2358.22547.43309-.03241-.2358.22547.43309-.03194-.2358.22547h.39456l-.23697.19306h.39456l-.23697.22595h.39456l-.27666.19306h.39456l-.23697.19353.35604.03194-.23697.19353h.39456l-.27666.19306h.39456l-.23697.19353.39456.03194-.27549.16112.39456.03241-.23697.16112.39456.03194-.23697.16112.39456.03241-.27666.16112h.43425l-.27549.19306h.43309l-.27549.19353.47278-.03241-.31518.19353.47394-.03241-.31635.22547.47394-.06435-.27666.22547.47394-.06435-.31635.22547.47394-.09677-.27666.22547.43425-.09629-.39456.35417.63154-.16112-.47394.38659.70975-.09677-.3934.25788.55216-.06435-.39456.25741.55216-.06435-.39456.25788.51247-.09677-.35487.25788.47394-.09677-.31635.25788.43425-.12918-.27666.25788.39456-.1287-.19728.25741.31635-.1287-.19728.28982.31518-.16112h-.03969.03969l.03969-.03194-.03969.03194.1179.03241.03969-.03241v.03241h.03969l-.19728-.1287h.31518l-.27549-.16112h.35487l-.35487-.16112.35487-.03241-.39456-.16112.43425-.03194-.47394-.16112.47394-.06435-.51363-.16112.47394-.09677-.55216-.16112.55216-.06435-.59185-.19353.51247-.06435-.59068-.16112.55216-.06435-.63154-.19306.59185-.06483-.63154-.16064.59185-.06483-.67006-.16112.63037-.06435-.67006-.16112.67006-.06435-.74944-.19306.70975-.06435-.74944-.16112.71092-.06483-.74944-.16064.74944-.06483-.74944-.16112.74944-.06435-.78913-.19306.74944-.06435-.74944-.16112.74944-.06435-.78913-.16112.78913-.06483-.78913-.16064.78913-.06483-.78913-.19306.74944-.06435-.78913-.16112.78913-.06435-.78913-.16112.86851-.09677-.9082-.19353.94672-.06435-.94672-.22547.98641-.06435-.94672-.25788,1.0261-.03194-.98641-.35465,1.06462.06435-.98524-.45094,1.06462.12918-.90703-.48335,1.37981.25788-.94672-1.03106,1.22338.61206-.43425-1.12735.86851.80511-.15759-1.15976.63037.96671.23697-1.06347.23697.74124.19728-.77318.19728.74076.2358-.70882.15876.70882.2358-.67641.11907.61206.19728-.54771.1179.58012.19728-.54771.07938.54771.19728-.48335.1179.51529.19728-.45094.07821.51529.23697-.45094.07938.48335.23697-.419.07821.45142.23697-.38659.1179.41853.23697-.38659.07938.45094.27549-.35417.07938.38659.27549-.32224.03969.38659.31518-.28982v.35417l.35604-.25741v.35417l.3934-.22547-.03852.35417.39456-.16112-.07938.2903.35487-.12918-.07821.25788.35487-.09677-.11907.25788.31635-.03241-.19728.12918.19728.03194.07821-.03194-.03969.03194h.03969l-.23697.12918.39456.09629-.27549.16112.43425.12918-.31635.16064.43425.16112-.31518.09677.39456.19353-.35604.09629.43425.16112-.35487.09677.39456.19353-.35487.06435.39456.16112-.39456.06435.43309.19306-.3934.06483.43309.16064-.43309.06483.51247.19306-.47394.06435.51363.19353-.47394.06435.51247.16112-.51247.06435.55216.19353-.51247.06435.55216.16112-.51247.06435.55216.19306-.55216.06435.59185.16112-.59185.06483.59185.19306-.55216.06435.59068.16112-.59068.06435.63037.19353-.59185.06435.59185.16112-.59185.09677.63154.16112-.63154.06435.63154.16112-.63154.09629.63154.16112-.59185.06483.59185.16064-.59185.06483.59185.16112-.59185.06435.59185.16112-.63154.06435.63154.16112-.63154.09629.59185.12918-.59185.09677.59185.16064-.59185.06483.55216.16112-.59068.06435.59068.16112-.59068.06435.55216.16112-.55216.06435.51247.16112-.55216.06435.51247.16112-.51247.06435.51247.16112-.55216.06435.51247.16112-.51247.06435.47278.16112-.51247.06435.47394.16112-.47394.06435.43425.16112-.47394.06483.47394.16064-.47394.06483.43425.16112-.47278.06435.43309.16112-.43309.06435.43309.16112-.43309.06435.3934.16112-.43309.06435.43309.16159-.43309.06388.39456.16112-.39456.09724.39456.12775-.39456.09724.39456.16112-.39456.06388.39456.16112-.39456.06483.39456.16112-.39456.06483.43309.16016-.3934.06483.3934.16112-.3934.06483.43309.16112-.43309.06388.47278.16112-.43425.06483.47394.16112-.43425.06388.47394.16112-.47394.06483.51247.16112-.47278.06388.51247.16112-.47278.06483.55216.16112-.51247.06388.59068.16112-.55216.06483.59185.16112-.55216.06483.63154.16016-.59185.06483.67006.16112-.63037.06483.70975.16112-.67123.06388.75061.16112-.67123.06483.74944.16112-.74944.09629.82882.16112-.74944.06483.82765.16112-.78913.06388.86851.16112-.82882.06483.90703.16112-.86734.09629.94672.16112-.90703.06483.98641.16016-.94672.06483.98524.16112-.94672.06483,1.0261.19258-1.0261.06483,1.06579.16112-1.0261.06483,1.06579.19258-1.06579.03241,1.06579.19353-1.06579.06388,1.10431.19353-1.10431.03241,1.10431.22499-1.144.03241,1.144.22595-1.30159.03241,1.26307.28982h-1.42066l1.34128.38611-1.53857-.09629,1.42066.57964-1.81523-.28982,1.38097,1.09541-1.53857-.67689.98641,1.19266-1.49888-.838.74944,1.41765-1.10431-1.16024.19728,1.48248-.59185-.96671.1179,1.063-.47278-.99817v1.063l-.35604-.96671-.07821.99912-.27666-.93429-.1179.93429-.19728-.90283-.19728.90283-.1179-.87042-.23697.838-.07938-.80559-.2358.77318-.07938-.74076-.19728.70835-.07938-.77318-.2358.74076-.07938-.74076-.19728.7093-.1179-.74172-.19728.7093-.11907-.74076-.2358.70835-.07938-.74076-.27549.70835-.03969-.77318-.31635.74076v-.77318l-.35487.7093v-.77318l-.39456.70835.07938-.80559-.51247.7093.15759-.77318-.55216.64447.2358-.77318-.67006.64447.31518-.80559-.74944.61206.43425-.74076-.78913.51482.47394-.67593-.78913.45094.51247-.61206-.82882.38611.55332-.57964-.78913.32224.55216-.51577-.78913.28982.59185-.48335-.78913.25836.55216-.45094-.74944.22499.59185-.41853-.74944.19353.55216-.38706-.74944.19353.51247-.35465-.63037.19353.55216-.41853-.74944.19258.55216-.41853-.74944.22595.59185-.41948-.78913.19353.59185-.38611-.74944.19258.59068-.38611-.74944.19353.55216-.38706-.74944.16112.59185-.38611-.74944.19258.59185-.38611-.70975.19353.55216-.38706-.70975.16112.55216-.38706-.71092.19353.59185-.38611-.70975.16112.55216-.35465-.67006.16112.55216-.38706-.67123.16112.51363-.3537-.63154.16112.51247-.35465-.63037.1287.51247-.35465-.63154.12966.51363-.38706-.67123.1287.47394-.32224-.55332.09724.43425-.32224-.51247.09629.39456-.28982-.51247.06483.3934-.25836-.47278.06483.35487-.25836-.43425.03241.31635-.25741-.39456.06483.27549-.25836-.39456.06483.27666-.22595-.35487.03241.19728-.22595-.31635.06483.19728-.22499-.31518.06388.15759-.22499-.31518.06388.15759-.28982-.35487.06483.03969-.25836-.39456.19353v-.09629l-.11907-.12966-.03852.25836-.23697-.1287v.22499l-.15759-.03241.1179.19353h-.27549l.19728.25741-.23697.03241.19728.19353-.23697.06483.19728.19258-.23697.06483.23697.19353-.23697.06388.23697.19353-.23697.06483.23697.16112-.23697.06388.19728.16112-.19728.06483.19728.16112-.23697.06388.23697.16112-.23697.06483.19728.16112-.19728.06388.19728.16112-.19728.06483.15876.16112-.15876.06388.15876.16112-.15876.06483.15876.16112-.15876.06388.15876.16112-.15876.09724.15876.16112-.15876.06388.19728.16112-.19728.06483.19728.16112-.19728.06388.23697.16112-.19728.06483.19728.16112-.19728.06483.23697.19258-.23697.03241.23697.19353-.23697.06388.27666.19353-.27666.03241.27666.19353-.31635.06388.27666.22595h-.27666l.23697.25741h-.43425l.27666.48335-.47394-.1287.03969.51577-.39456-.19353-.03852.54723-.35604-.28982-.15759.45094-.19728-.25741-.1179.35465-.19728-.29078-.15759.35465-.15759-.28982-.19728.35465-.11907-.32224-.2358.35465-.07938-.32224-.23697.32224-.07821-.29078-.23697.32224-.07938-.32224-.19728.35465-.1179-.35465-.19728.35465-.07938-.32224-.2358.32224-.07938-.32224-.19728.35465-.07821-.32224-.19728.35465-.07938-.35465-.23697.35465-.07821-.35465-.19728.38706-.07938-.38706-.27549.38706-.03969-.38706-.27666.41853-.03969-.48335-.39456.48335v-.64447l-.67006.54818.19728-.64447-.82882.41853.27666-.64352-.94672.3537.59185-.57964-1.0261.06483.74944-.45094-1.144-.06483.94672-.32224-1.10431-.28982.67123-.16112-.78913-.1287.70975-.1287-.78913-.12966.70975-.09629-.78796-.19353.74944-.06388-.78913-.16112.70975-.06483-.78913-.19353.74944-.03146-.78913-.19353h.35604l-.39456-.06483.90703-.06388-.74944-.19353ZM139.91722,9.76147v.19306l.07938-.09629-.07938-.09677ZM140.03629,9.76147l.03969-.03241-.07938-.06435-.03969.06435.07938.03241Z" fill="#000" stroke-width="0"/>
</svg>