<?xml version="1.0" encoding="UTF-8"?>
<svg id="a" data-name="Layer 1" xmlns="http://www.w3.org/2000/svg" viewBox="0 0 450 170">
  <g>
    <path d="M22.72937,17.11087v101.42942h46.07154c3.67355,0,6.49201,1.10977,8.45679,3.32711,1.96336,2.21955,2.9467,5.00725,2.9467,8.36531,0,3.42217-.97009,6.1955-2.90837,8.31778-1.9397,2.12449-4.77141,3.18452-8.49512,3.18452H13.92855c-4.94933,0-8.5079-1.3618-10.67616-4.0876-2.16921-2.72359-3.25239-7.12953-3.25239-13.21339V17.11087C0,11.40724,1.03302,7.12953,3.09955,4.27772,5.16559,1.42591,7.88278,0,11.25017,0c3.41754,0,6.18584,1.41098,8.30347,4.23019,2.11668,2.82086,3.17573,7.11461,3.17573,12.88068Z" fill="#3f3d31" stroke-width="0"/>
    <path d="M171.88799,91.35302c0,7.73305-.96961,14.86258-2.90789,21.38858-1.9397,6.52822-4.74491,12.13678-8.41846,16.82569-3.67355,4.69112-8.06213,8.28683-13.16337,10.78935-5.10266,2.50252-10.84226,3.75488-17.21927,3.75488-6.32733,0-12.01535-1.26895-17.06643-3.80241s-9.4264-6.16234-13.12504-10.88441c-3.70005-4.71986-6.50526-10.29747-8.41846-16.73063-1.9132-6.43094-2.87004-13.5461-2.87004-21.34105,0-7.85685.96867-15.05049,2.90837-21.5787,1.93828-6.52656,4.71841-12.10362,8.3418-16.73063,3.62197-4.62535,8.0096-8.19011,13.16337-10.69429,5.15234-2.50252,10.84084-3.75488,17.06643-3.75488,6.32544,0,12.06551,1.26839,17.21927,3.80241,5.15282,2.53568,9.56647,6.14797,13.24003,10.83688,3.67308,4.69057,6.46646,10.26652,8.38013,16.73063,1.9132,6.46411,2.86956,13.59363,2.86956,21.38858ZM150.91851,91.35302c0-10.58265-1.87487-18.82195-5.62508-24.7157-3.74974-5.89374-8.78898-8.84061-15.11442-8.84061-4.08241,0-7.67977,1.31592-10.79115,3.94501-3.11232,2.63074-5.51009,6.51164-7.19378,11.6449s-2.52554,11.12206-2.52554,17.96641c0,6.78245.8286,12.70714,2.48721,17.77629,1.65767,5.07136,4.02988,8.95226,7.1176,11.6449,3.0863,2.69485,6.72152,4.04007,10.90567,4.04007,6.32544,0,11.36468-2.96124,15.11442-8.88815,3.75021-5.92469,5.62508-14.11647,5.62508-24.57311Z" fill="#3f3d31" stroke-width="0"/>
    <path d="M208.77589,15.78002v38.49945c2.65236-3.80241,5.24225-6.81174,7.76779-9.03074,2.52554-2.21734,5.31891-3.8809,8.38013-4.99067,3.06074-1.10812,6.35241-1.66356,9.87217-1.66356,5.30661,0,10.01319,1.39496,14.12068,4.18266,4.10654,2.78936,7.33385,6.84435,9.68099,12.16773,1.47926,3.10604,2.47396,6.57575,2.98503,10.40911.50918,3.83502.76471,8.25478.76471,13.26092v49.71658c0,5.19737-.95684,9.1258-2.86956,11.78749-1.91367,2.66169-4.45199,3.99254-7.61494,3.99254-6.88809,0-10.33213-5.25927-10.33213-15.78002v-43.82283c0-8.3012-.99469-14.68683-2.98408-19.15467-1.99033-4.46784-5.76563-6.70176-11.32683-6.70176-3.72466,0-7.07927,1.31592-10.06382,3.94501-2.98455,2.63074-5.21717,6.22645-6.69644,10.78935-1.12293,3.86653-1.68369,10.74182-1.68369,20.6281v34.3168c0,5.13326-.93128,9.04732-2.79338,11.73996-1.86304,2.69264-4.45199,4.04007-7.76779,4.04007-6.88762,0-10.33166-5.25927-10.33166-15.78002V15.78002c0-5.25927.90526-9.20428,2.71672-11.83502,1.81051-2.62908,4.3493-3.94501,7.61494-3.94501,3.3158,0,5.90475,1.33085,7.76779,3.99254,1.86209,2.66169,2.79338,6.59177,2.79338,11.78749Z" fill="#3f3d31" stroke-width="0"/>
    <path d="M341.32664,97.72206h-40.86762c.05016,5.89374,1.007,11.09111,2.87051,15.5899,1.86162,4.501,4.33558,7.89001,7.42282,10.17146s6.49248,3.42217,10.21761,3.42217c2.49856,0,4.78324-.36366,6.84928-1.09319,2.06605-.72732,4.06774-1.86805,6.00791-3.42217,1.93828-1.55192,3.72324-3.21547,5.35677-4.99067,1.63258-1.77299,3.74974-4.18266,6.35241-7.22459,1.07135-1.14072,2.60173-1.71109,4.59111-1.71109,2.14365,0,3.87751.72953,5.2044,2.18639,1.32594,1.45907,1.99033,3.51723,1.99033,6.17892,0,2.34556-.74011,5.08573-2.21937,8.22272-1.48116,3.13699-3.71188,6.14797-6.69691,9.03074-2.98503,2.88497-6.73477,5.27585-11.25017,7.17706s-9.70749,2.85181-15.57344,2.85181c-13.41937,0-23.85277-4.75302-31.30115-14.25906-7.45027-9.50604-11.17351-22.40109-11.17351-38.68957,0-7.66673.91803-14.78189,2.75505-21.34105,1.83607-6.55917,4.5154-12.18265,8.03516-16.87322,3.5207-4.68891,7.85628-8.28517,13.01052-10.78935,5.15234-2.50252,10.86781-3.75488,17.14261-3.75488,8.16292,0,15.16553,2.13886,21.00782,6.41658,5.84134,4.27772,10.21667,9.8078,13.12504,16.58804,2.90837,6.78189,4.36208,13.68869,4.36208,20.72316,0,6.52822-1.50482,10.7584-4.51445,12.69056-3.01153,1.93437-7.24584,2.89934-12.70482,2.89934ZM300.45902,82.98771h37.88354c-.51107-8.87156-2.43705-15.50976-5.77888-19.91515-3.34183-4.40373-7.74271-6.6067-13.20075-6.6067-5.2044,0-9.47846,2.23392-12.81934,6.70176-3.34183,4.46784-5.37002,11.07453-6.08457,19.82009Z" fill="#3f3d31" stroke-width="0"/>
    <path d="M395.12811,52.94863v3.13699c3.67308-6.01975,7.69066-10.44006,12.05368-13.26092,4.36208-2.8192,9.37435-4.23019,15.03776-4.23019,5.51009,0,10.4334,1.49002,14.77087,4.46784,4.33558,2.97948,7.57614,7.19364,9.71885,12.64303,1.378,3.1696,2.26953,6.59177,2.67933,10.26652.40696,3.6764.61139,8.36531.61139,14.06894v48.29067c0,5.19737-.95589,9.1258-2.86956,11.78749s-4.40088,3.99254-7.46162,3.99254c-3.1128,0-5.63786-1.36401-7.57709-4.0876s-2.90742-6.62107-2.90742-11.69243v-43.25247c0-8.55543-.95684-15.09802-2.87051-19.62997-1.91273-4.53029-5.72777-6.79682-11.44134-6.79682-3.72419,0-7.11712,1.37838-10.17786,4.13513-3.06169,2.75675-5.30756,6.54424-6.73477,11.35971-1.02119,3.86653-1.53132,11.09111-1.53132,21.67377v32.51065c0,5.26148-.98239,9.20649-2.94622,11.83502-1.96478,2.62853-4.50309,3.94501-7.61494,3.94501-3.01058,0-5.48454-1.36401-7.42282-4.0876-1.94017-2.72359-2.90837-6.62107-2.90837-11.69243V53.32887c0-4.94314.86693-8.63391,2.60173-11.07453,1.73385-2.43896,4.10654-3.65982,7.11712-3.65982,1.83701,0,3.4942.53941,4.97441,1.61603,1.47926,1.07827,2.66608,2.6943,3.55951,4.84808.89153,2.15544,1.33919,4.78563,1.33919,7.89001Z" fill="#3f3d31" stroke-width="0"/>
  </g>
  <rect x="89.07373" y="155.58885" width="269" height="14.41115" rx="3.78917" ry="3.78917" fill="#292929" stroke-width="0"/>
</svg>